<?xml version="1.0" encoding="utf-8"?>
<!-- Generator: Adobe Illustrator 14.0.0, SVG Export Plug-In . SVG Version: 6.00 Build 43363)  -->
<!DOCTYPE svg PUBLIC "-//W3C//DTD SVG 1.1//EN" "http://www.w3.org/Graphics/SVG/1.1/DTD/svg11.dtd">
<svg version="1.1" id="Camada_1" xmlns="http://www.w3.org/2000/svg" xmlns:xlink="http://www.w3.org/1999/xlink" x="0px" y="0px"
	 width="190px" height="200px" viewBox="0 0 190 200" enable-background="new 0 0 190 200" xml:space="preserve">
<rect x="1.135" fill="#3B2C84" width="187.183" height="139.296"/>
<polygon opacity="0.85" fill="none" stroke="#FFFFFF" stroke-width="3" points="125.088,119.551 75.475,98.19 69.166,44.542 
	112.475,12.258 162.086,33.622 168.393,87.268 "/>
<polygon fill="none" stroke="#FFFFFF" stroke-width="3" points="163.426,119.619 107.125,134.104 66.429,92.589 82.035,36.587 
	138.334,22.105 179.031,63.619 "/>
<polygon opacity="0.7" fill="none" stroke="#FFFFFF" stroke-width="3" points="154.355,124.578 92.984,130.021 57.586,79.591 
	83.561,23.723 144.926,18.285 180.326,68.711 "/>
<g>
	<path fill="#FFFFFF" d="M16.318,92.322l19.568-6.859c3.249-1.155,6.137-2.094,9.025-2.817v-0.216
		c-2.888-0.794-5.776-1.805-9.025-2.96l-19.568-6.787v-6.643l34.948,13.719v6.065L16.318,99.109V92.322z"/>
	<path fill="#FFFFFF" d="M0,55.715v-6.354h21.878v-0.145c-1.805-1.011-3.466-2.6-4.549-4.548c-1.083-1.878-1.733-4.116-1.733-6.499
		c0-4.693,2.889-12.203,14.875-12.203h20.795v6.354H31.193c-5.632,0-10.325,2.094-10.325,8.087c0,4.116,2.888,7.293,6.282,8.521
		c0.938,0.361,1.877,0.433,3.032,0.433h21.084v6.354H0z"/>
	<path fill="#FFFFFF" d="M0,11.311V4.956h51.266v6.354H0z"/>
</g>
<g>
	<path fill="#3B2C84" d="M5.149,163.554h2.988v24.108H5.149V163.554z"/>
	<path fill="#3B2C84" d="M32.753,166.608c0,1.02-0.713,1.835-1.901,1.835c-1.086,0-1.8-0.815-1.8-1.835
		c0-1.017,0.747-1.867,1.868-1.867C32.006,164.741,32.753,165.557,32.753,166.608z M29.426,187.662v-16.435h2.988v16.435H29.426z"/>
	<path fill="#3B2C84" d="M53.635,163.554h2.954v10.322h0.068c1.052-1.833,2.954-2.987,5.603-2.987c4.109,0,6.961,3.396,6.961,8.352
		c0,5.875-3.736,8.795-7.402,8.795c-2.376,0-4.278-0.917-5.535-3.057h-0.068l-0.17,2.684h-2.547
		c0.068-1.121,0.136-2.784,0.136-4.244V163.554z M56.589,181.075c0,0.373,0.034,0.746,0.136,1.086
		c0.543,2.071,2.309,3.498,4.481,3.498c3.158,0,4.992-2.548,4.992-6.316c0-3.294-1.697-6.112-4.923-6.112
		c-2.004,0-3.905,1.427-4.516,3.667c-0.102,0.375-0.17,0.781-0.17,1.257V181.075z"/>
	<path fill="#3B2C84" d="M89.217,176.354c0-1.936-0.034-3.6-0.136-5.127h2.614l0.136,3.26h0.102
		c0.748-2.207,2.581-3.599,4.583-3.599c0.305,0,0.543,0.033,0.816,0.067v2.817c-0.307-0.067-0.611-0.067-1.02-0.067
		c-2.105,0-3.599,1.563-4.007,3.803c-0.067,0.408-0.103,0.917-0.103,1.394v8.76h-2.988V176.354z"/>
	<path fill="#3B2C84" d="M127.959,183.724c0,1.425,0.068,2.817,0.238,3.938h-2.682l-0.238-2.071h-0.102
		c-0.916,1.29-2.682,2.444-5.025,2.444c-3.328,0-5.025-2.343-5.025-4.72c0-3.973,3.531-6.146,9.881-6.112v-0.339
		c0-1.324-0.373-3.803-3.736-3.77c-1.561,0-3.156,0.441-4.311,1.223l-0.68-2.004c1.359-0.849,3.361-1.425,5.434-1.425
		c5.025,0,6.246,3.429,6.246,6.688V183.724z M125.074,179.275c-3.26-0.068-6.961,0.509-6.961,3.7c0,1.97,1.289,2.854,2.783,2.854
		c2.174,0,3.566-1.359,4.041-2.751c0.102-0.34,0.137-0.679,0.137-0.951V179.275z"/>
	<path fill="#3B2C84" d="M149.045,176.354c0-1.936-0.033-3.6-0.135-5.127h2.613l0.137,3.26h0.1c0.748-2.207,2.582-3.599,4.586-3.599
		c0.305,0,0.543,0.033,0.814,0.067v2.817c-0.307-0.067-0.611-0.067-1.02-0.067c-2.104,0-3.6,1.563-4.006,3.803
		c-0.068,0.408-0.102,0.917-0.102,1.394v8.76h-2.988V176.354z"/>
	<path fill="#3B2C84" d="M178.348,171.228l3.564,9.711c0.408,1.087,0.814,2.377,1.086,3.361h0.068
		c0.305-0.984,0.646-2.241,1.053-3.43l3.26-9.643h3.158l-4.482,11.715c-2.139,5.636-3.6,8.487-5.637,10.288
		c-1.494,1.256-2.92,1.766-3.666,1.901l-0.748-2.479c0.748-0.237,1.73-0.713,2.615-1.46c0.814-0.645,1.799-1.8,2.512-3.328
		c0.137-0.306,0.238-0.543,0.238-0.714c0-0.168-0.068-0.406-0.238-0.781l-6.043-15.143H178.348z"/>
</g>
<g>
	<path fill="#3B2C84" d="M5.544,147.08l2.607,7.438c0.438,1.235,0.796,2.333,1.07,3.43h0.083c0.302-1.097,0.687-2.194,1.125-3.43
		l2.58-7.438h2.524l-5.214,13.283H8.014L2.965,147.08H5.544z"/>
	<path fill="#3B2C84" d="M23.245,143.348c0,0.823-0.576,1.482-1.537,1.482c-0.878,0-1.455-0.659-1.455-1.482
		c0-0.822,0.604-1.509,1.509-1.509C22.642,141.839,23.245,142.497,23.245,143.348z M20.556,160.363V147.08h2.415v13.283H20.556z"/>
	<path fill="#3B2C84" d="M29.722,151.225c0-1.563-0.027-2.91-0.11-4.145h2.113l0.11,2.635h0.083
		c0.604-1.784,2.086-2.908,3.705-2.908c0.247,0,0.439,0.026,0.658,0.054v2.278c-0.246-0.056-0.494-0.056-0.823-0.056
		c-1.702,0-2.909,1.264-3.238,3.075c-0.055,0.328-0.083,0.739-0.083,1.125v7.08h-2.415V151.225z"/>
	<path fill="#3B2C84" d="M45.008,143.897v3.183h3.458v1.839h-3.458v7.164c0,1.645,0.466,2.578,1.811,2.578
		c0.659,0,1.043-0.054,1.4-0.164l0.11,1.839c-0.466,0.164-1.208,0.328-2.141,0.328c-1.125,0-2.031-0.384-2.607-1.015
		c-0.659-0.741-0.933-1.922-0.933-3.485v-7.245h-2.059v-1.839h2.059v-2.471L45.008,143.897z"/>
	<path fill="#3B2C84" d="M65.042,156.713c0,1.4,0.028,2.607,0.11,3.65h-2.141l-0.137-2.169h-0.055
		c-0.604,1.071-2.031,2.47-4.391,2.47c-2.086,0-4.583-1.179-4.583-5.816v-7.768h2.415v7.328c0,2.524,0.796,4.253,2.964,4.253
		c1.619,0,2.745-1.125,3.183-2.223c0.138-0.329,0.22-0.769,0.22-1.235v-8.123h2.415V156.713z"/>
	<path fill="#3B2C84" d="M81.124,157.18c0,1.153,0.055,2.278,0.192,3.184h-2.169l-0.192-1.674h-0.082
		c-0.741,1.043-2.168,1.975-4.062,1.975c-2.689,0-4.062-1.893-4.062-3.813c0-3.211,2.854-4.968,7.986-4.94v-0.273
		c0-1.07-0.301-3.074-3.019-3.047c-1.262,0-2.552,0.357-3.485,0.988l-0.549-1.619c1.098-0.687,2.717-1.152,4.391-1.152
		c4.063,0,5.05,2.771,5.05,5.405V157.18z M78.792,153.584c-2.635-0.055-5.626,0.412-5.626,2.991c0,1.592,1.043,2.306,2.25,2.306
		c1.756,0,2.881-1.098,3.266-2.223c0.082-0.274,0.11-0.549,0.11-0.769V153.584z"/>
	<path fill="#3B2C84" d="M87.765,140.878h2.416v19.485h-2.416V140.878z"/>
	<path fill="#3B2C84" d="M105.549,140.878h2.414v8.316h0.055c0.385-0.687,0.988-1.318,1.73-1.73
		c0.713-0.411,1.563-0.657,2.469-0.657c1.783,0,4.639,1.097,4.639,5.652v7.904h-2.416v-7.63c0-2.141-0.795-3.924-3.072-3.924
		c-1.564,0-2.773,1.097-3.238,2.388c-0.139,0.356-0.166,0.713-0.166,1.152v8.014h-2.414V140.878z"/>
	<path fill="#3B2C84" d="M124.869,154.161c0.055,3.266,2.113,4.61,4.555,4.61c1.729,0,2.799-0.302,3.678-0.686l0.439,1.728
		c-0.852,0.386-2.332,0.851-4.447,0.851c-4.088,0-6.531-2.717-6.531-6.723c0-4.007,2.361-7.135,6.23-7.135
		c4.363,0,5.488,3.786,5.488,6.229c0,0.493-0.025,0.851-0.082,1.125H124.869z M131.949,152.432c0.027-1.51-0.631-3.897-3.348-3.897
		c-2.471,0-3.514,2.224-3.705,3.897H131.949z"/>
	<path fill="#3B2C84" d="M149.35,157.18c0,1.153,0.055,2.278,0.189,3.184h-2.166l-0.193-1.674h-0.082
		c-0.74,1.043-2.168,1.975-4.061,1.975c-2.691,0-4.063-1.893-4.063-3.813c0-3.211,2.854-4.968,7.986-4.94v-0.273
		c0-1.07-0.303-3.074-3.02-3.047c-1.262,0-2.553,0.357-3.484,0.988l-0.549-1.619c1.096-0.687,2.715-1.152,4.391-1.152
		c4.061,0,5.051,2.771,5.051,5.405V157.18z M147.016,153.584c-2.635-0.055-5.627,0.412-5.627,2.991c0,1.592,1.043,2.306,2.252,2.306
		c1.756,0,2.883-1.098,3.266-2.223c0.082-0.274,0.109-0.549,0.109-0.769V153.584z"/>
	<path fill="#3B2C84" d="M155.988,140.878h2.416v19.485h-2.416V140.878z"/>
	<path fill="#3B2C84" d="M168.119,143.897v3.183h3.459v1.839h-3.459v7.164c0,1.645,0.467,2.578,1.811,2.578
		c0.66,0,1.045-0.054,1.4-0.164l0.111,1.839c-0.467,0.164-1.209,0.328-2.143,0.328c-1.125,0-2.029-0.384-2.607-1.015
		c-0.658-0.741-0.932-1.922-0.932-3.485v-7.245h-2.059v-1.839h2.059v-2.471L168.119,143.897z"/>
	<path fill="#3B2C84" d="M177.039,140.878h2.416v8.316h0.055c0.383-0.687,0.986-1.318,1.729-1.73
		c0.713-0.411,1.564-0.657,2.469-0.657c1.783,0,4.639,1.097,4.639,5.652v7.904h-2.414v-7.63c0-2.141-0.797-3.924-3.074-3.924
		c-1.564,0-2.771,1.097-3.238,2.388c-0.137,0.356-0.164,0.713-0.164,1.152v8.014h-2.416V140.878z"/>
</g>
</svg>
