<?xml version="1.0" encoding="utf-8"?>
<!-- Generator: Adobe Illustrator 14.0.0, SVG Export Plug-In . SVG Version: 6.00 Build 43363)  -->
<!DOCTYPE svg PUBLIC "-//W3C//DTD SVG 1.1//EN" "http://www.w3.org/Graphics/SVG/1.1/DTD/svg11.dtd">
<svg version="1.1" id="Camada_1" xmlns="http://www.w3.org/2000/svg" xmlns:xlink="http://www.w3.org/1999/xlink" x="0px" y="0px"
	 width="476.593px" height="116px" viewBox="0 0 476.593 116" enable-background="new 0 0 476.593 116" xml:space="preserve">
<g>
	<path fill="#3B2D85" d="M6.031,12.326c4.247-0.765,10.193-1.359,17.668-1.359c8.665,0,15.036,1.444,19.453,5.182
		c4.163,3.398,6.626,9.004,6.626,15.121c0,18.263-14.866,22.511-25.144,22.511c-1.444,0-2.718-0.085-3.738-0.17v23.446H6.031V12.326
		z M20.896,41.887c0.935,0.085,1.869,0.17,3.398,0.17c6.965,0,10.703-4.163,10.703-10.108c0-6.031-3.653-9.344-9.599-9.344
		c-2.039,0-3.653,0.255-4.502,0.51V41.887z"/>
	<path fill="#3B2D85" d="M59.117,11.391h14.951v65.664H59.117V11.391z"/>
	<path fill="#3B2D85" d="M127.496,75.695c-2.293,1.02-7.39,2.209-13.846,2.209c-20.812,0-30.666-14.526-30.666-32.705
		c0-23.53,15.291-34.658,32.195-34.658c6.625,0,11.212,1.359,13.081,2.379l-2.718,12.147c-2.209-1.019-5.352-1.954-9.515-1.954
		c-9.429,0-17.328,6.456-17.328,21.236c0,13.676,6.795,20.812,17.413,20.812c3.398,0,7.221-0.681,9.515-1.529L127.496,75.695z"/>
	<path fill="#3B2D85" d="M187.549,43.331c0,22.851-11.128,34.659-27.691,34.659c-18.094,0-26.929-15.631-26.929-33.639
		c0-18.518,10.194-33.894,27.862-33.894C179.904,10.457,187.549,27.361,187.549,43.331z M148.645,44.095
		c-0.085,12.573,4.162,21.577,11.722,21.577c7.561,0,11.468-9.004,11.468-21.832c0-11.468-3.822-21.066-11.468-21.066
		C152.382,22.774,148.645,32.797,148.645,44.095z"/>
	<path fill="#3B2D85" d="M247.261,25.747c-2.379-1.189-6.286-2.718-11.552-2.718c-5.776,0-8.579,2.803-8.579,6.031
		c0,3.652,2.718,5.437,10.703,9.089c10.448,4.672,14.78,11.128,14.78,19.283c0,11.978-9.09,20.472-24.974,20.472
		c-6.625,0-13.166-1.698-16.225-3.397l2.549-12.571c3.482,1.783,9.004,3.397,14.271,3.397c6.286,0,9.345-2.719,9.345-6.626
		c0-3.993-2.974-6.201-9.77-9.259c-10.363-4.757-15.715-11.213-15.715-19.028c0-11.128,8.495-19.877,23.7-19.877
		c6.286,0,11.127,1.359,14.27,2.888L247.261,25.747z"/>
	<path fill="#3B2D85" d="M297.628,75.271c-4.416,1.783-10.107,2.633-15.799,2.633c-15.035,0-23.531-9.004-23.531-23.955
		c0-13.676,7.986-25.653,22.257-25.653c11.383,0,19.452,7.645,19.452,23.87c0,2.293-0.084,4.672-0.424,6.286H272.57
		c0.34,5.69,5.438,8.325,11.639,8.325c4.332,0,8.068-0.766,11.467-1.869L297.628,75.271z M286.332,48.173
		c0-4.248-1.357-9.599-6.541-9.599c-5.097,0-7.049,5.606-7.305,9.599H286.332z"/>
	<path fill="#3B2D85" d="M345.621,65.757c0,4.247,0.17,8.409,0.764,11.298h-13.422l-0.848-4.587h-0.256
		c-2.889,3.822-7.391,5.521-12.316,5.521c-8.664,0-14.355-6.626-14.355-14.696c0-12.657,11.297-18.093,25.398-18.178
		c0-3.653-1.615-6.286-7.646-6.286c-4.502,0-8.748,1.359-11.809,3.228l-2.717-9.684c3.057-1.699,9.258-4.077,17.498-4.077
		c15.801,0,19.707,10.023,19.707,20.642v16.819H345.621z M331.093,54.458c-6.201,0-11.467,1.784-11.467,7.306
		c0,3.907,2.377,5.606,5.012,5.606c3.059,0,6.455-2.209,6.455-6.711V54.458z"/>
	<path fill="#3B2D85" d="M383.671,42.906c-1.02-0.255-2.123-0.34-3.652-0.34c-3.822,0-7.391,1.784-8.664,6.031
		c-0.426,1.104-0.596,2.803-0.596,4.502v23.956H355.81V44.69c0-6.286-0.17-11.128-0.34-15.46h12.826l0.596,7.985h0.34
		c2.379-6.286,7.391-8.919,11.299-8.919c1.441,0,2.207,0.085,3.143,0.255v14.355H383.671z"/>
	<path fill="#3B2D85" d="M422.236,76.12c-2.037,0.935-6.285,1.784-10.957,1.784c-14.271,0-23.361-8.92-23.361-24.21
		c0-14.441,9.346-25.314,25.4-25.314c3.736,0,7.305,0.765,9.428,1.529l-2.123,11.298c-1.529-0.51-3.568-1.104-6.541-1.104
		c-6.795,0-11.127,5.267-11.043,12.997c0,8.325,4.758,12.998,11.129,12.998c2.633,0,4.842-0.426,6.709-1.189L422.236,76.12z"/>
	<path fill="#3B2D85" d="M471.585,77.055h-14.951V49.872c0-5.352-1.527-9.259-5.945-9.259c-1.869,0-6.285,0.935-6.285,7.646v28.798
		h-14.951V8.673h14.951v25.824h0.17c3.736-4.842,8.324-6.201,12.146-6.201c9.6,0,14.865,7.39,14.865,20.642V77.055L471.585,77.055z"
		/>
</g>
<polyline fill="#3B2D85" points="4.156,86.994 471.157,86.994 471.157,113.494 4.156,113.494 "/>
<g>
	<path fill="#FFFFFF" d="M19.893,95.934h4.297c0.443,0,0.856,0.02,1.24,0.059s0.737,0.112,1.06,0.22s0.612,0.252,0.869,0.435
		s0.48,0.42,0.669,0.713c0.182,0.293,0.314,0.603,0.396,0.928s0.122,0.674,0.122,1.045c0,1.218-0.389,2.136-1.167,2.754
		s-1.906,0.928-3.384,0.928h-1.729v4.082h-2.373V95.934z M22.266,101.119h1.426c0.313,0,0.615-0.013,0.908-0.039
		s0.552-0.095,0.776-0.205s0.404-0.278,0.537-0.503s0.2-0.535,0.2-0.933c0-0.391-0.062-0.693-0.186-0.908s-0.294-0.374-0.513-0.479
		s-0.475-0.166-0.771-0.186s-0.614-0.029-0.952-0.029h-1.426V101.119z"/>
	<path fill="#FFFFFF" d="M35.254,95.738c0.82,0,1.559,0.139,2.217,0.415s1.217,0.669,1.68,1.177s0.817,1.116,1.064,1.826
		s0.371,1.497,0.371,2.363c0,0.853-0.122,1.633-0.366,2.339s-0.596,1.312-1.055,1.816s-1.019,0.896-1.68,1.177
		s-1.405,0.42-2.231,0.42c-0.833,0-1.582-0.139-2.246-0.415s-1.227-0.667-1.689-1.172s-0.815-1.11-1.06-1.816
		s-0.366-1.489-0.366-2.349c0-0.866,0.124-1.653,0.371-2.363s0.604-1.318,1.069-1.826s1.029-0.9,1.689-1.177
		S34.427,95.738,35.254,95.738z M35.234,105.279c0.469,0,0.884-0.096,1.245-0.288s0.667-0.456,0.918-0.791s0.439-0.732,0.566-1.191
		s0.19-0.955,0.19-1.489c0-0.527-0.062-1.021-0.186-1.479s-0.308-0.857-0.552-1.196s-0.545-0.604-0.903-0.796
		s-0.771-0.288-1.24-0.288s-0.887,0.095-1.255,0.283s-0.675,0.451-0.923,0.786s-0.436,0.732-0.566,1.191s-0.195,0.959-0.195,1.499
		c0,0.534,0.065,1.03,0.195,1.489s0.319,0.856,0.566,1.191s0.55,0.599,0.908,0.791S34.772,105.279,35.234,105.279z"/>
	<path fill="#FFFFFF" d="M42.432,95.934h4.297c0.443,0,0.856,0.02,1.24,0.059s0.737,0.112,1.06,0.22s0.612,0.252,0.869,0.435
		s0.48,0.42,0.669,0.713c0.182,0.293,0.314,0.603,0.396,0.928s0.122,0.674,0.122,1.045c0,1.218-0.389,2.136-1.167,2.754
		s-1.906,0.928-3.384,0.928h-1.729v4.082h-2.373V95.934z M44.805,101.119h1.426c0.313,0,0.615-0.013,0.908-0.039
		s0.552-0.095,0.776-0.205s0.404-0.278,0.537-0.503s0.2-0.535,0.2-0.933c0-0.391-0.062-0.693-0.186-0.908s-0.294-0.374-0.513-0.479
		s-0.475-0.166-0.771-0.186s-0.614-0.029-0.952-0.029h-1.426V101.119z"/>
	<path fill="#FFFFFF" d="M57.451,107.271c-0.67,0-1.25-0.059-1.738-0.176s-0.903-0.281-1.245-0.493s-0.62-0.467-0.835-0.767
		s-0.381-0.63-0.498-0.991s-0.197-0.75-0.239-1.167s-0.063-0.85-0.063-1.299v-6.445h2.373v6.445c0,0.515,0.038,0.952,0.112,1.313
		s0.2,0.657,0.376,0.889s0.407,0.398,0.693,0.503s0.641,0.156,1.064,0.156c0.397,0,0.737-0.051,1.021-0.151s0.516-0.264,0.698-0.488
		s0.314-0.52,0.396-0.884s0.122-0.811,0.122-1.338v-6.445h2.363v6.445c0,0.391-0.016,0.781-0.049,1.172s-0.101,0.769-0.205,1.133
		s-0.259,0.703-0.464,1.016s-0.477,0.586-0.815,0.82s-0.758,0.418-1.26,0.552S58.154,107.271,57.451,107.271z"/>
	<path fill="#FFFFFF" d="M71.65,107.096h-7.354V95.934h2.373v9.121h4.98V107.096z"/>
	<path fill="#FFFFFF" d="M82.715,107.096h-2.461l-0.918-2.656h-3.975l-0.879,2.656h-2.363l3.896-11.162h2.627L82.715,107.096z
		 M78.779,102.516l-1.465-4.58l-1.416,4.58H78.779z"/>
	<path fill="#FFFFFF" d="M91.934,97.975h-3.301v9.121h-2.354v-9.121h-3.281v-2.041h8.936V97.975z"/>
	<path fill="#FFFFFF" d="M95.84,107.096h-2.363V95.934h2.363V107.096z"/>
	<path fill="#FFFFFF" d="M103.145,95.738c0.82,0,1.559,0.139,2.217,0.415s1.217,0.669,1.68,1.177s0.817,1.116,1.064,1.826
		s0.371,1.497,0.371,2.363c0,0.853-0.122,1.633-0.366,2.339s-0.596,1.312-1.055,1.816s-1.019,0.896-1.68,1.177
		s-1.405,0.42-2.231,0.42c-0.833,0-1.582-0.139-2.246-0.415s-1.227-0.667-1.689-1.172s-0.815-1.11-1.06-1.816
		s-0.366-1.489-0.366-2.349c0-0.866,0.124-1.653,0.371-2.363s0.604-1.318,1.069-1.826s1.029-0.9,1.689-1.177
		S102.318,95.738,103.145,95.738z M103.125,105.279c0.469,0,0.884-0.096,1.245-0.288s0.667-0.456,0.918-0.791
		s0.439-0.732,0.566-1.191s0.19-0.955,0.19-1.489c0-0.527-0.062-1.021-0.186-1.479s-0.308-0.857-0.552-1.196
		s-0.545-0.604-0.903-0.796s-0.771-0.288-1.24-0.288s-0.887,0.095-1.255,0.283s-0.675,0.451-0.923,0.786s-0.436,0.732-0.566,1.191
		s-0.195,0.959-0.195,1.499c0,0.534,0.065,1.03,0.195,1.489s0.319,0.856,0.566,1.191s0.55,0.599,0.908,0.791
		S102.663,105.279,103.125,105.279z"/>
	<path fill="#FFFFFF" d="M119.541,107.096h-2.402l-4.58-7.764v7.764h-2.236V95.934h2.393l4.6,7.744v-7.744h2.227V107.096z"/>
	<path fill="#FFFFFF" d="M124.248,107.057c0,0.476-0.059,0.879-0.176,1.211s-0.282,0.604-0.493,0.815s-0.46,0.366-0.747,0.464
		s-0.596,0.146-0.928,0.146v-1.133c0.391,0,0.666-0.119,0.825-0.356s0.239-0.607,0.239-1.108h-1.143v-2.305h2.422V107.057z"/>
	<path fill="#FFFFFF" d="M133.604,107.096h-2.363V95.934h2.363V107.096z"/>
	<path fill="#FFFFFF" d="M145.166,107.096h-2.402l-4.58-7.764v7.764h-2.236V95.934h2.393l4.6,7.744v-7.744h2.227V107.096z"/>
	<path fill="#FFFFFF" d="M155.527,97.975h-3.301v9.121h-2.354v-9.121h-3.281v-2.041h8.936V97.975z"/>
	<path fill="#FFFFFF" d="M165.547,107.096h-8.594V95.934h8.34v1.982h-5.967v2.5h5.566v2.002h-5.566v2.676h6.221V107.096z"/>
	<path fill="#FFFFFF" d="M177.051,107.096h-2.559l-0.957-2.725c-0.189-0.554-0.443-0.95-0.762-1.191s-0.719-0.361-1.201-0.361
		h-1.846v4.277h-2.373V95.934h4.961c0.41,0,0.794,0.018,1.152,0.054s0.688,0.1,0.991,0.19s0.576,0.218,0.82,0.381
		s0.454,0.374,0.63,0.635c0.182,0.261,0.322,0.549,0.42,0.864s0.146,0.669,0.146,1.06c0,0.788-0.208,1.419-0.625,1.895
		s-0.996,0.804-1.738,0.986c0.221,0.098,0.421,0.208,0.601,0.332s0.34,0.273,0.483,0.449s0.273,0.383,0.391,0.62
		s0.231,0.503,0.342,0.796L177.051,107.096z M169.727,100.914h2.344c0.703,0,1.209-0.127,1.519-0.381s0.464-0.667,0.464-1.24
		c0-1.009-0.609-1.514-1.826-1.514h-2.5V100.914z"/>
	<path fill="#FFFFFF" d="M187.734,95.934l-3.799,11.162h-2.686l-3.818-11.162h2.48l2.676,9.043l2.764-9.043H187.734z"/>
	<path fill="#FFFFFF" d="M197.51,107.096h-8.594V95.934h8.34v1.982h-5.967v2.5h5.566v2.002h-5.566v2.676h6.221V107.096z"/>
	<path fill="#FFFFFF" d="M208.535,107.096h-2.402l-4.58-7.764v7.764h-2.236V95.934h2.393l4.6,7.744v-7.744h2.227V107.096z"/>
	<path fill="#FFFFFF" d="M218.896,97.975h-3.301v9.121h-2.354v-9.121h-3.281v-2.041h8.936V97.975z"/>
	<path fill="#FFFFFF" d="M222.803,107.096h-2.363V95.934h2.363V107.096z"/>
	<path fill="#FFFFFF" d="M230.107,95.738c0.82,0,1.559,0.139,2.217,0.415s1.217,0.669,1.68,1.177s0.817,1.116,1.064,1.826
		s0.371,1.497,0.371,2.363c0,0.853-0.122,1.633-0.366,2.339s-0.596,1.312-1.055,1.816s-1.019,0.896-1.68,1.177
		s-1.405,0.42-2.231,0.42c-0.833,0-1.582-0.139-2.246-0.415s-1.227-0.667-1.689-1.172s-0.815-1.11-1.06-1.816
		s-0.366-1.489-0.366-2.349c0-0.866,0.124-1.653,0.371-2.363s0.604-1.318,1.069-1.826s1.029-0.9,1.689-1.177
		S229.281,95.738,230.107,95.738z M230.088,105.279c0.469,0,0.884-0.096,1.245-0.288s0.667-0.456,0.918-0.791
		s0.439-0.732,0.566-1.191s0.19-0.955,0.19-1.489c0-0.527-0.062-1.021-0.186-1.479s-0.308-0.857-0.552-1.196
		s-0.545-0.604-0.903-0.796s-0.771-0.288-1.24-0.288s-0.887,0.095-1.255,0.283s-0.675,0.451-0.923,0.786s-0.436,0.732-0.566,1.191
		s-0.195,0.959-0.195,1.499c0,0.534,0.065,1.03,0.195,1.489s0.319,0.856,0.566,1.191s0.55,0.599,0.908,0.791
		S229.625,105.279,230.088,105.279z"/>
	<path fill="#FFFFFF" d="M246.504,107.096h-2.402l-4.58-7.764v7.764h-2.237V95.934h2.393l4.6,7.744v-7.744h2.227V107.096z"/>
	<path fill="#FFFFFF" d="M251.211,107.057c0,0.476-0.059,0.879-0.176,1.211s-0.281,0.604-0.493,0.815s-0.461,0.366-0.747,0.464
		s-0.596,0.146-0.928,0.146v-1.133c0.391,0,0.666-0.119,0.825-0.356s0.239-0.607,0.239-1.108h-1.143v-2.305h2.422V107.057z"/>
	<path fill="#FFFFFF" d="M262.94,107.271c-0.788,0-1.511-0.125-2.168-0.376s-1.221-0.637-1.689-1.157
		c-0.481-0.527-0.835-1.14-1.06-1.836s-0.337-1.491-0.337-2.383c0-1.784,0.466-3.193,1.396-4.229
		c0.481-0.521,1.048-0.91,1.699-1.167s1.37-0.386,2.158-0.386c0.625,0,1.198,0.075,1.719,0.225s0.996,0.381,1.426,0.693
		c0.527,0.391,0.915,0.837,1.162,1.338s0.407,1.067,0.479,1.699h-2.383c-0.078-0.605-0.325-1.079-0.742-1.421
		s-0.97-0.513-1.66-0.513c-0.423,0-0.809,0.083-1.157,0.249s-0.645,0.408-0.889,0.728s-0.433,0.713-0.566,1.182
		s-0.2,1.003-0.2,1.602s0.065,1.131,0.195,1.597s0.315,0.859,0.557,1.182s0.534,0.566,0.879,0.732s0.732,0.249,1.162,0.249
		c0.69,0,1.243-0.178,1.66-0.532s0.671-0.864,0.762-1.528h2.363c-0.071,0.651-0.229,1.229-0.474,1.733s-0.581,0.939-1.011,1.304
		c-0.43,0.352-0.915,0.608-1.455,0.771S263.617,107.271,262.94,107.271z"/>
	<path fill="#FFFFFF" d="M274.512,95.738c0.82,0,1.56,0.139,2.217,0.415s1.218,0.669,1.68,1.177s0.817,1.116,1.064,1.826
		s0.371,1.497,0.371,2.363c0,0.853-0.122,1.633-0.366,2.339s-0.596,1.312-1.055,1.816s-1.019,0.896-1.68,1.177
		s-1.404,0.42-2.231,0.42c-0.833,0-1.582-0.139-2.246-0.415s-1.228-0.667-1.689-1.172s-0.815-1.11-1.06-1.816
		s-0.366-1.489-0.366-2.349c0-0.866,0.124-1.653,0.371-2.363s0.604-1.318,1.069-1.826s1.028-0.9,1.689-1.177
		S273.685,95.738,274.512,95.738z M274.493,105.279c0.469,0,0.884-0.096,1.245-0.288s0.667-0.456,0.918-0.791
		s0.439-0.732,0.566-1.191s0.19-0.955,0.19-1.489c0-0.527-0.062-1.021-0.186-1.479s-0.308-0.857-0.552-1.196
		s-0.545-0.604-0.903-0.796s-0.771-0.288-1.24-0.288s-0.887,0.095-1.255,0.283s-0.676,0.451-0.923,0.786s-0.437,0.732-0.566,1.191
		s-0.195,0.959-0.195,1.499c0,0.534,0.065,1.03,0.195,1.489s0.319,0.856,0.566,1.191s0.55,0.599,0.908,0.791
		S274.031,105.279,274.493,105.279z"/>
	<path fill="#FFFFFF" d="M293.526,107.096h-2.139v-8.818l-2.656,8.818h-2.168l-2.715-8.818v8.818h-2.158V95.934h3.418l2.52,8.438
		l2.5-8.438h3.398V107.096z"/>
	<path fill="#FFFFFF" d="M295.792,95.934h4.297c0.442,0,0.856,0.02,1.24,0.059s0.737,0.112,1.06,0.22s0.612,0.252,0.869,0.435
		s0.48,0.42,0.669,0.713c0.183,0.293,0.314,0.603,0.396,0.928s0.122,0.674,0.122,1.045c0,1.218-0.389,2.136-1.167,2.754
		s-1.906,0.928-3.384,0.928h-1.729v4.082h-2.373V95.934z M298.165,101.119h1.426c0.313,0,0.615-0.013,0.908-0.039
		s0.552-0.095,0.776-0.205s0.403-0.278,0.537-0.503s0.2-0.535,0.2-0.933c0-0.391-0.062-0.693-0.186-0.908s-0.295-0.374-0.513-0.479
		s-0.476-0.166-0.771-0.186s-0.613-0.029-0.952-0.029h-1.426V101.119z"/>
	<path fill="#FFFFFF" d="M315.645,107.096h-2.461l-0.918-2.656h-3.975l-0.879,2.656h-2.363l3.896-11.162h2.627L315.645,107.096z
		 M311.709,102.516l-1.465-4.58l-1.416,4.58H311.709z"/>
	<path fill="#FFFFFF" d="M326.446,107.096h-2.559l-0.957-2.725c-0.188-0.554-0.442-0.95-0.762-1.191s-0.72-0.361-1.201-0.361h-1.846
		v4.277h-2.373V95.934h4.961c0.41,0,0.794,0.018,1.152,0.054s0.688,0.1,0.991,0.19s0.576,0.218,0.82,0.381s0.454,0.374,0.63,0.635
		c0.183,0.261,0.322,0.549,0.42,0.864s0.146,0.669,0.146,1.06c0,0.788-0.208,1.419-0.625,1.895s-0.996,0.804-1.738,0.986
		c0.222,0.098,0.422,0.208,0.601,0.332s0.34,0.273,0.483,0.449s0.273,0.383,0.391,0.62s0.231,0.503,0.342,0.796L326.446,107.096z
		 M319.122,100.914h2.344c0.703,0,1.209-0.127,1.519-0.381s0.464-0.667,0.464-1.24c0-1.009-0.608-1.514-1.826-1.514h-2.5V100.914z"
		/>
	<path fill="#FFFFFF" d="M330.391,107.096h-2.363V95.934h2.363V107.096z"/>
	<path fill="#FFFFFF" d="M337.09,107.271c-1.517,0-2.705-0.322-3.564-0.967s-1.325-1.621-1.396-2.93h2.285
		c0.078,0.671,0.34,1.172,0.786,1.504s1.057,0.498,1.831,0.498c0.71,0,1.271-0.124,1.685-0.371s0.62-0.605,0.62-1.074
		c0-0.208-0.051-0.384-0.151-0.527s-0.254-0.269-0.459-0.376s-0.461-0.207-0.767-0.298s-0.667-0.188-1.084-0.293l-0.42-0.117
		c-0.527-0.137-1.028-0.275-1.504-0.415s-0.892-0.325-1.25-0.557s-0.643-0.53-0.854-0.898s-0.317-0.845-0.317-1.431
		c0-0.56,0.117-1.047,0.352-1.46s0.552-0.755,0.952-1.025s0.864-0.471,1.392-0.601s1.084-0.195,1.67-0.195
		c0.677,0,1.291,0.08,1.841,0.239s1.022,0.389,1.416,0.688s0.701,0.666,0.923,1.099s0.342,0.923,0.361,1.47h-2.305
		c-0.059-0.527-0.278-0.926-0.659-1.196s-0.906-0.405-1.577-0.405c-0.645,0-1.14,0.115-1.484,0.347s-0.518,0.549-0.518,0.952
		c0,0.188,0.044,0.35,0.132,0.483s0.225,0.251,0.41,0.352s0.423,0.193,0.713,0.278s0.637,0.176,1.04,0.273
		c0.403,0.091,0.796,0.183,1.177,0.273s0.739,0.195,1.074,0.313s0.642,0.256,0.918,0.415s0.513,0.354,0.708,0.581
		s0.349,0.498,0.459,0.811s0.166,0.681,0.166,1.104c0,0.554-0.109,1.045-0.327,1.475s-0.527,0.791-0.928,1.084
		s-0.884,0.516-1.45,0.669S337.787,107.271,337.09,107.271z"/>
	<path fill="#FFFFFF" d="M348.438,95.738c0.82,0,1.56,0.139,2.217,0.415s1.218,0.669,1.68,1.177s0.817,1.116,1.064,1.826
		s0.371,1.497,0.371,2.363c0,0.853-0.122,1.633-0.366,2.339s-0.596,1.312-1.055,1.816s-1.019,0.896-1.68,1.177
		s-1.404,0.42-2.231,0.42c-0.833,0-1.582-0.139-2.246-0.415s-1.228-0.667-1.689-1.172s-0.815-1.11-1.06-1.816
		s-0.366-1.489-0.366-2.349c0-0.866,0.124-1.653,0.371-2.363s0.604-1.318,1.069-1.826s1.028-0.9,1.689-1.177
		S347.611,95.738,348.438,95.738z M348.418,105.279c0.469,0,0.884-0.096,1.245-0.288s0.667-0.456,0.918-0.791
		s0.439-0.732,0.566-1.191s0.19-0.955,0.19-1.489c0-0.527-0.062-1.021-0.186-1.479s-0.308-0.857-0.552-1.196
		s-0.545-0.604-0.903-0.796s-0.771-0.288-1.24-0.288s-0.887,0.095-1.255,0.283s-0.676,0.451-0.923,0.786s-0.437,0.732-0.566,1.191
		s-0.195,0.959-0.195,1.499c0,0.534,0.065,1.03,0.195,1.489s0.319,0.856,0.566,1.191s0.55,0.599,0.908,0.791
		S347.957,105.279,348.418,105.279z"/>
	<path fill="#FFFFFF" d="M364.834,107.096h-2.402l-4.58-7.764v7.764h-2.236V95.934h2.393l4.6,7.744v-7.744h2.227V107.096z"/>
	<path fill="#FFFFFF" d="M369.542,107.057c0,0.476-0.059,0.879-0.176,1.211s-0.281,0.604-0.493,0.815s-0.461,0.366-0.747,0.464
		s-0.596,0.146-0.928,0.146v-1.133c0.391,0,0.666-0.119,0.825-0.356s0.239-0.607,0.239-1.108h-1.143v-2.305h2.422V107.057z"/>
	<path fill="#FFFFFF" d="M381.377,95.738c0.82,0,1.56,0.139,2.217,0.415s1.218,0.669,1.68,1.177s0.817,1.116,1.064,1.826
		s0.371,1.497,0.371,2.363c0,0.853-0.122,1.633-0.366,2.339s-0.596,1.312-1.055,1.816s-1.019,0.896-1.68,1.177
		s-1.404,0.42-2.231,0.42c-0.833,0-1.582-0.139-2.246-0.415s-1.228-0.667-1.689-1.172s-0.815-1.11-1.06-1.816
		s-0.366-1.489-0.366-2.349c0-0.866,0.124-1.653,0.371-2.363s0.604-1.318,1.069-1.826s1.028-0.9,1.689-1.177
		S380.55,95.738,381.377,95.738z M381.358,105.279c0.469,0,0.884-0.096,1.245-0.288s0.667-0.456,0.918-0.791
		s0.439-0.732,0.566-1.191s0.19-0.955,0.19-1.489c0-0.527-0.062-1.021-0.186-1.479s-0.308-0.857-0.552-1.196
		s-0.545-0.604-0.903-0.796s-0.771-0.288-1.24-0.288s-0.887,0.095-1.255,0.283s-0.676,0.451-0.923,0.786s-0.437,0.732-0.566,1.191
		s-0.195,0.959-0.195,1.499c0,0.534,0.065,1.03,0.195,1.489s0.319,0.856,0.566,1.191s0.55,0.599,0.908,0.791
		S380.896,105.279,381.358,105.279z"/>
	<path fill="#FFFFFF" d="M393.174,107.271c-0.671,0-1.25-0.059-1.738-0.176s-0.903-0.281-1.245-0.493s-0.62-0.467-0.835-0.767
		s-0.381-0.63-0.498-0.991s-0.197-0.75-0.239-1.167s-0.063-0.85-0.063-1.299v-6.445h2.373v6.445c0,0.515,0.037,0.952,0.112,1.313
		s0.2,0.657,0.376,0.889s0.407,0.398,0.693,0.503s0.642,0.156,1.064,0.156c0.397,0,0.737-0.051,1.021-0.151s0.516-0.264,0.698-0.488
		s0.314-0.52,0.396-0.884s0.122-0.811,0.122-1.338v-6.445h2.363v6.445c0,0.391-0.017,0.781-0.049,1.172s-0.101,0.769-0.205,1.133
		s-0.259,0.703-0.464,1.016s-0.477,0.586-0.815,0.82s-0.759,0.418-1.26,0.552S393.877,107.271,393.174,107.271z"/>
	<path fill="#FFFFFF" d="M408.135,97.975h-3.301v9.121h-2.354v-9.121H399.2v-2.041h8.936V97.975z"/>
	<path fill="#FFFFFF" d="M414.415,107.271c-0.788,0-1.511-0.125-2.168-0.376s-1.221-0.637-1.689-1.157
		c-0.481-0.527-0.835-1.14-1.06-1.836s-0.337-1.491-0.337-2.383c0-1.784,0.466-3.193,1.396-4.229
		c0.481-0.521,1.048-0.91,1.699-1.167s1.37-0.386,2.158-0.386c0.625,0,1.198,0.075,1.719,0.225s0.996,0.381,1.426,0.693
		c0.527,0.391,0.915,0.837,1.162,1.338s0.407,1.067,0.479,1.699h-2.383c-0.078-0.605-0.325-1.079-0.742-1.421
		s-0.97-0.513-1.66-0.513c-0.423,0-0.809,0.083-1.157,0.249s-0.645,0.408-0.889,0.728s-0.433,0.713-0.566,1.182
		s-0.2,1.003-0.2,1.602s0.065,1.131,0.195,1.597s0.315,0.859,0.557,1.182s0.534,0.566,0.879,0.732s0.732,0.249,1.162,0.249
		c0.69,0,1.243-0.178,1.66-0.532s0.671-0.864,0.762-1.528h2.363c-0.071,0.651-0.229,1.229-0.474,1.733s-0.581,0.939-1.011,1.304
		c-0.43,0.352-0.915,0.608-1.455,0.771S415.091,107.271,414.415,107.271z"/>
	<path fill="#FFFFFF" d="M425.987,95.738c0.82,0,1.56,0.139,2.217,0.415s1.218,0.669,1.68,1.177s0.817,1.116,1.064,1.826
		s0.371,1.497,0.371,2.363c0,0.853-0.122,1.633-0.366,2.339s-0.596,1.312-1.055,1.816s-1.019,0.896-1.68,1.177
		s-1.404,0.42-2.231,0.42c-0.833,0-1.582-0.139-2.246-0.415s-1.228-0.667-1.689-1.172s-0.815-1.11-1.06-1.816
		s-0.366-1.489-0.366-2.349c0-0.866,0.124-1.653,0.371-2.363s0.604-1.318,1.069-1.826s1.028-0.9,1.689-1.177
		S425.16,95.738,425.987,95.738z M425.967,105.279c0.469,0,0.884-0.096,1.245-0.288s0.667-0.456,0.918-0.791
		s0.439-0.732,0.566-1.191s0.19-0.955,0.19-1.489c0-0.527-0.062-1.021-0.186-1.479s-0.308-0.857-0.552-1.196
		s-0.545-0.604-0.903-0.796s-0.771-0.288-1.24-0.288s-0.887,0.095-1.255,0.283s-0.676,0.451-0.923,0.786s-0.437,0.732-0.566,1.191
		s-0.195,0.959-0.195,1.499c0,0.534,0.065,1.03,0.195,1.489s0.319,0.856,0.566,1.191s0.55,0.599,0.908,0.791
		S425.505,105.279,425.967,105.279z"/>
	<path fill="#FFFFFF" d="M445,107.096h-2.139v-8.818l-2.656,8.818h-2.168l-2.715-8.818v8.818h-2.158V95.934h3.418l2.52,8.438
		l2.5-8.438H445V107.096z"/>
	<path fill="#FFFFFF" d="M455.86,107.096h-8.594V95.934h8.34v1.982h-5.967v2.5h5.566v2.002h-5.566v2.676h6.221V107.096z"/>
</g>
</svg>
