<?xml version="1.0" encoding="utf-8"?>
<!-- Generator: Adobe Illustrator 14.0.0, SVG Export Plug-In . SVG Version: 6.00 Build 43363)  -->
<!DOCTYPE svg PUBLIC "-//W3C//DTD SVG 1.1//EN" "http://www.w3.org/Graphics/SVG/1.1/DTD/svg11.dtd">
<svg version="1.1" id="Camada_1" xmlns="http://www.w3.org/2000/svg" xmlns:xlink="http://www.w3.org/1999/xlink" x="0px" y="0px"
	 width="476.593px" height="116px" viewBox="0 0 476.593 116" enable-background="new 0 0 476.593 116" xml:space="preserve">
<g>
	<path fill="#3B2D85" d="M6.031,12.326c4.247-0.765,10.193-1.359,17.668-1.359c8.665,0,15.036,1.444,19.453,5.182
		c4.163,3.398,6.626,9.004,6.626,15.121c0,18.263-14.866,22.511-25.144,22.511c-1.444,0-2.718-0.085-3.738-0.17v23.445H6.031V12.326
		z M20.896,41.887c0.935,0.085,1.869,0.17,3.398,0.17c6.965,0,10.703-4.163,10.703-10.108c0-6.031-3.653-9.344-9.599-9.344
		c-2.039,0-3.653,0.255-4.502,0.51V41.887z"/>
	<path fill="#3B2D85" d="M59.117,11.391h14.951v65.664H59.117V11.391z"/>
	<path fill="#3B2D85" d="M127.496,75.695c-2.293,1.02-7.39,2.209-13.846,2.209c-20.812,0-30.666-14.526-30.666-32.705
		c0-23.53,15.291-34.658,32.195-34.658c6.625,0,11.212,1.359,13.081,2.379l-2.718,12.147c-2.209-1.019-5.352-1.954-9.515-1.954
		c-9.429,0-17.328,6.456-17.328,21.236c0,13.676,6.795,20.812,17.413,20.812c3.398,0,7.221-0.68,9.515-1.529L127.496,75.695z"/>
	<path fill="#3B2D85" d="M187.549,43.331c0,22.851-11.128,34.659-27.691,34.659c-18.094,0-26.929-15.631-26.929-33.639
		c0-18.518,10.194-33.894,27.862-33.894C179.904,10.457,187.549,27.361,187.549,43.331z M148.645,44.095
		c-0.085,12.573,4.162,21.577,11.722,21.577c7.561,0,11.468-9.004,11.468-21.832c0-11.468-3.822-21.066-11.468-21.066
		C152.382,22.774,148.645,32.797,148.645,44.095z"/>
	<path fill="#3B2D85" d="M247.261,25.747c-2.379-1.189-6.286-2.718-11.552-2.718c-5.776,0-8.579,2.803-8.579,6.031
		c0,3.652,2.718,5.437,10.703,9.089c10.448,4.672,14.78,11.128,14.78,19.283c0,11.978-9.09,20.473-24.974,20.473
		c-6.625,0-13.166-1.699-16.225-3.398l2.549-12.571c3.482,1.783,9.004,3.397,14.271,3.397c6.286,0,9.345-2.719,9.345-6.626
		c0-3.993-2.974-6.201-9.77-9.259c-10.363-4.757-15.715-11.213-15.715-19.028c0-11.128,8.495-19.877,23.7-19.877
		c6.286,0,11.127,1.359,14.27,2.888L247.261,25.747z"/>
	<path fill="#3B2D85" d="M297.629,75.271c-4.417,1.784-10.108,2.634-15.8,2.634c-15.035,0-23.53-9.005-23.53-23.956
		c0-13.676,7.985-25.653,22.256-25.653c11.383,0,19.453,7.645,19.453,23.87c0,2.293-0.085,4.672-0.425,6.286h-27.013
		c0.34,5.691,5.437,8.325,11.638,8.325c4.332,0,8.069-0.765,11.468-1.869L297.629,75.271z M286.332,48.173
		c0-4.248-1.358-9.599-6.541-9.599c-5.097,0-7.05,5.606-7.305,9.599H286.332z"/>
	<path fill="#3B2D85" d="M345.62,65.757c0,4.247,0.17,8.409,0.765,11.298h-13.422l-0.849-4.587h-0.255
		c-2.889,3.822-7.391,5.521-12.317,5.521c-8.664,0-14.355-6.626-14.355-14.696c0-12.657,11.297-18.093,25.398-18.178
		c0-3.653-1.614-6.286-7.646-6.286c-4.502,0-8.749,1.359-11.808,3.228l-2.718-9.684c3.058-1.699,9.259-4.077,17.499-4.077
		c15.8,0,19.707,10.023,19.707,20.642V65.757z M331.094,54.458c-6.201,0-11.468,1.784-11.468,7.306c0,3.907,2.378,5.606,5.012,5.606
		c3.058,0,6.456-2.209,6.456-6.711V54.458z"/>
	<path fill="#3B2D85" d="M383.672,42.906c-1.02-0.255-2.124-0.34-3.652-0.34c-3.823,0-7.391,1.784-8.665,6.031
		c-0.425,1.104-0.595,2.803-0.595,4.502v23.955h-14.95V44.69c0-6.286-0.17-11.128-0.34-15.46h12.827l0.595,7.985h0.34
		c2.378-6.286,7.39-8.919,11.298-8.919c1.443,0,2.208,0.085,3.143,0.255V42.906z"/>
	<path fill="#3B2D85" d="M422.236,76.12c-2.038,0.935-6.286,1.784-10.958,1.784c-14.271,0-23.36-8.92-23.36-24.21
		c0-14.441,9.345-25.314,25.399-25.314c3.737,0,7.305,0.765,9.429,1.529l-2.124,11.298c-1.528-0.51-3.567-1.104-6.54-1.104
		c-6.796,0-11.128,5.267-11.043,12.997c0,8.325,4.757,12.997,11.128,12.997c2.633,0,4.842-0.425,6.71-1.189L422.236,76.12z"/>
	<path fill="#3B2D85" d="M471.585,77.055h-14.95V49.872c0-5.352-1.529-9.259-5.946-9.259c-1.869,0-6.286,0.935-6.286,7.646v28.797
		h-14.95V8.673h14.95v25.824h0.17c3.738-4.842,8.325-6.201,12.147-6.201c9.599,0,14.865,7.39,14.865,20.642V77.055z"/>
</g>
<rect x="4.796" y="85.924" fill="#3B2D85" width="467" height="26.5"/>
<g>
	<path fill="#FFFFFF" d="M18.632,93.123c0.85-0.152,2.04-0.271,3.536-0.271c1.734,0,3.008,0.289,3.893,1.037
		c0.833,0.68,1.326,1.802,1.326,3.025c0,3.654-2.975,4.505-5.031,4.505c-0.289,0-0.544-0.018-0.748-0.034v4.691h-2.975V93.123z
		 M21.607,99.039c0.187,0.017,0.374,0.034,0.68,0.034c1.394,0,2.142-0.833,2.142-2.023c0-1.207-0.731-1.869-1.921-1.869
		c-0.408,0-0.731,0.051-0.901,0.102V99.039z"/>
	<path fill="#FFFFFF" d="M39.728,106.076h-3.094l-0.765-3.06h-3.026l-0.714,3.06h-3.025l3.467-13.14h3.791L39.728,106.076z
		 M35.513,100.756l-0.578-2.635c-0.17-0.782-0.391-1.955-0.561-2.754H34.34c-0.17,0.799-0.391,2.006-0.544,2.754l-0.595,2.635
		H35.513z"/>
	<path fill="#FFFFFF" d="M49.86,95.555h-3.009v10.521H43.86V95.555h-2.975v-2.618h8.975V95.555z"/>
	<path fill="#FFFFFF" d="M52.343,92.937h2.992v13.14h-2.992V92.937z"/>
	<path fill="#FFFFFF" d="M66.214,106.076h-7.462v-13.14h7.207v2.499h-4.215v2.635h3.995v2.447h-3.995v3.06h4.47V106.076z"/>
	<path fill="#FFFFFF" d="M78.828,106.076h-2.975l-2.294-4.776c-0.612-1.258-1.36-2.975-1.836-4.335h-0.068
		c0.085,1.53,0.153,3.536,0.153,5.882v3.229h-2.686v-13.14h3.195l2.244,4.708c0.595,1.174,1.309,2.856,1.802,4.182h0.034
		c-0.153-1.529-0.255-3.586-0.255-5.762v-3.128h2.686V106.076z"/>
	<path fill="#FFFFFF" d="M90.286,95.555h-3.009v10.521h-2.992V95.555h-2.975v-2.618h8.975V95.555z"/>
	<path fill="#FFFFFF" d="M95.879,102.728c-0.646,1.938-1.496,3.961-2.465,5.541l-1.955,0.188c0.629-1.785,1.139-3.791,1.411-5.524
		L95.879,102.728z"/>
	<path fill="#FFFFFF" d="M103.156,92.937h2.992v13.14h-2.992V92.937z"/>
	<path fill="#FFFFFF" d="M119.271,106.076h-2.975l-2.294-4.776c-0.612-1.258-1.36-2.975-1.836-4.335h-0.068
		c0.085,1.53,0.153,3.536,0.153,5.882v3.229h-2.686v-13.14h3.195l2.244,4.708c0.595,1.174,1.309,2.856,1.802,4.182h0.034
		c-0.153-1.529-0.255-3.586-0.255-5.762v-3.128h2.686V106.076z"/>
	<path fill="#FFFFFF" d="M130.729,95.555h-3.009v10.521h-2.992V95.555h-2.975v-2.618h8.975V95.555z"/>
	<path fill="#FFFFFF" d="M140.673,106.076h-7.462v-13.14h7.207v2.499h-4.215v2.635h3.995v2.447h-3.995v3.06h4.47V106.076z"/>
	<path fill="#FFFFFF" d="M150.143,99.939c0.901,0.357,1.36,1.207,1.666,2.465c0.34,1.411,0.714,3.162,0.969,3.672h-3.094
		c-0.17-0.374-0.51-1.547-0.799-3.094c-0.289-1.598-0.748-2.022-1.75-2.022h-0.578v5.116h-2.975V93.123
		c0.918-0.152,2.192-0.271,3.553-0.271c1.75,0,5.184,0.187,5.184,3.791c0,1.547-0.969,2.753-2.176,3.229V99.939z M147.338,98.75
		c1.258,0,1.989-0.782,1.989-1.853c0-1.496-1.104-1.785-1.802-1.785c-0.476,0-0.799,0.034-0.969,0.085v3.553H147.338z"/>
	<path fill="#FFFFFF" d="M165.085,92.937l-3.773,13.14h-3.451l-3.655-13.123h3.298l1.241,5.474c0.34,1.479,0.663,2.992,0.918,4.572
		h0.051c0.238-1.563,0.561-3.093,0.901-4.572l1.241-5.49H165.085z"/>
	<path fill="#FFFFFF" d="M174.826,106.076h-7.462v-13.14h7.207v2.499h-4.215v2.635h3.995v2.447h-3.995v3.06h4.47V106.076z"/>
	<path fill="#FFFFFF" d="M187.44,106.076h-2.975l-2.294-4.776c-0.612-1.258-1.36-2.975-1.836-4.335h-0.068
		c0.085,1.53,0.153,3.536,0.153,5.882v3.229h-2.686v-13.14h3.195l2.244,4.708c0.595,1.174,1.309,2.856,1.802,4.182h0.034
		c-0.153-1.529-0.255-3.586-0.255-5.762v-3.128h2.686V106.076z"/>
	<path fill="#FFFFFF" d="M198.898,95.555h-3.009v10.521h-2.992V95.555h-2.975v-2.618h8.975V95.555z"/>
	<path fill="#FFFFFF" d="M201.381,92.937h2.992v13.14h-2.992V92.937z"/>
	<path fill="#FFFFFF" d="M218.091,99.328c0,4.572-2.228,6.935-5.542,6.935c-3.621,0-5.388-3.127-5.388-6.73
		c0-3.706,2.04-6.782,5.576-6.782C216.561,92.75,218.091,96.132,218.091,99.328z M210.306,99.48
		c-0.017,2.516,0.833,4.318,2.346,4.318c1.513,0,2.294-1.803,2.294-4.369c0-2.295-0.765-4.216-2.294-4.216
		C211.054,95.214,210.306,97.22,210.306,99.48z"/>
	<path fill="#FFFFFF" d="M230.586,106.076h-2.975l-2.295-4.776c-0.612-1.258-1.36-2.975-1.836-4.335h-0.068
		c0.085,1.53,0.153,3.536,0.153,5.882v3.229h-2.686v-13.14h3.195l2.244,4.708c0.595,1.174,1.309,2.856,1.802,4.182h0.034
		c-0.153-1.529-0.255-3.586-0.255-5.762v-3.128h2.686V106.076z"/>
	<path fill="#FFFFFF" d="M237.284,102.728c-0.646,1.938-1.495,3.961-2.465,5.541l-1.954,0.188c0.629-1.785,1.139-3.791,1.41-5.524
		L237.284,102.728z"/>
	<path fill="#FFFFFF" d="M252.839,105.805c-0.459,0.203-1.479,0.441-2.771,0.441c-4.164,0-6.136-2.906-6.136-6.544
		c0-4.709,3.06-6.936,6.442-6.936c1.325,0,2.243,0.271,2.617,0.476l-0.544,2.431c-0.441-0.204-1.07-0.391-1.903-0.391
		c-1.887,0-3.468,1.292-3.468,4.25c0,2.736,1.359,4.164,3.484,4.164c0.681,0,1.445-0.136,1.904-0.306L252.839,105.805z"/>
	<path fill="#FFFFFF" d="M265.861,99.328c0,4.572-2.227,6.935-5.541,6.935c-3.621,0-5.389-3.127-5.389-6.73
		c0-3.706,2.04-6.782,5.575-6.782C264.331,92.75,265.861,96.132,265.861,99.328z M258.076,99.48
		c-0.017,2.516,0.833,4.318,2.346,4.318s2.295-1.803,2.295-4.369c0-2.295-0.765-4.216-2.295-4.216
		C258.824,95.214,258.076,97.22,258.076,99.48z"/>
	<path fill="#FFFFFF" d="M281.45,106.076h-2.822l-0.187-4.691c-0.068-1.394-0.136-3.145-0.119-4.879h-0.051
		c-0.34,1.581-0.799,3.366-1.156,4.624l-1.292,4.708h-2.261l-1.173-4.674c-0.323-1.258-0.696-3.043-0.969-4.658h-0.051
		c-0.051,1.632-0.136,3.485-0.204,4.896l-0.221,4.675h-2.686l0.9-13.14h3.654l1.055,4.25c0.373,1.563,0.747,3.161,1.003,4.708h0.067
		c0.272-1.513,0.646-3.195,1.037-4.726l1.122-4.232h3.604L281.45,106.076z"/>
	<path fill="#FFFFFF" d="M284.51,93.123c0.85-0.152,2.04-0.271,3.535-0.271c1.734,0,3.009,0.289,3.893,1.037
		c0.833,0.68,1.326,1.802,1.326,3.025c0,3.654-2.975,4.505-5.031,4.505c-0.289,0-0.544-0.018-0.748-0.034v4.691h-2.975V93.123z
		 M287.485,99.039c0.187,0.017,0.374,0.034,0.68,0.034c1.394,0,2.142-0.833,2.142-2.023c0-1.207-0.73-1.869-1.921-1.869
		c-0.407,0-0.73,0.051-0.9,0.102V99.039z"/>
	<path fill="#FFFFFF" d="M305.606,106.076h-3.094l-0.765-3.06h-3.025l-0.714,3.06h-3.026l3.468-13.14h3.791L305.606,106.076z
		 M301.39,100.756l-0.577-2.635c-0.17-0.782-0.392-1.955-0.562-2.754h-0.034c-0.17,0.799-0.391,2.006-0.544,2.754l-0.595,2.635
		H301.39z"/>
	<path fill="#FFFFFF" d="M314.77,99.939c0.9,0.357,1.359,1.207,1.665,2.465c0.341,1.411,0.715,3.162,0.97,3.672h-3.094
		c-0.17-0.374-0.511-1.547-0.799-3.094c-0.289-1.598-0.748-2.022-1.751-2.022h-0.578v5.116h-2.975V93.123
		c0.918-0.152,2.192-0.271,3.553-0.271c1.751,0,5.185,0.187,5.185,3.791c0,1.547-0.97,2.753-2.176,3.229V99.939z M311.965,98.75
		c1.258,0,1.988-0.782,1.988-1.853c0-1.496-1.104-1.785-1.802-1.785c-0.476,0-0.799,0.034-0.969,0.085v3.553H311.965z"/>
	<path fill="#FFFFFF" d="M319.938,92.937h2.991v13.14h-2.991V92.937z"/>
	<path fill="#FFFFFF" d="M332.959,95.81c-0.476-0.238-1.258-0.544-2.312-0.544c-1.156,0-1.717,0.561-1.717,1.206
		c0,0.731,0.544,1.088,2.142,1.819c2.091,0.935,2.957,2.227,2.957,3.858c0,2.396-1.818,4.097-4.997,4.097
		c-1.326,0-2.635-0.34-3.247-0.68l0.511-2.516c0.696,0.356,1.802,0.68,2.855,0.68c1.258,0,1.87-0.544,1.87-1.326
		c0-0.799-0.596-1.24-1.955-1.853c-2.074-0.952-3.145-2.244-3.145-3.808c0-2.227,1.699-3.978,4.742-3.978
		c1.258,0,2.227,0.271,2.855,0.578L332.959,95.81z"/>
	<path fill="#FFFFFF" d="M347.085,99.328c0,4.572-2.227,6.935-5.541,6.935c-3.621,0-5.389-3.127-5.389-6.73
		c0-3.706,2.04-6.782,5.575-6.782C345.555,92.75,347.085,96.132,347.085,99.328z M339.3,99.48c-0.017,2.516,0.833,4.318,2.346,4.318
		s2.295-1.803,2.295-4.369c0-2.295-0.765-4.216-2.295-4.216C340.048,95.214,339.3,97.22,339.3,99.48z"/>
	<path fill="#FFFFFF" d="M359.581,106.076h-2.975l-2.295-4.776c-0.612-1.258-1.36-2.975-1.836-4.335h-0.068
		c0.085,1.53,0.153,3.536,0.153,5.882v3.229h-2.686v-13.14h3.195l2.244,4.708c0.595,1.174,1.309,2.856,1.802,4.182h0.034
		c-0.153-1.529-0.255-3.586-0.255-5.762v-3.128h2.686V106.076z"/>
	<path fill="#FFFFFF" d="M366.279,102.728c-0.646,1.938-1.496,3.961-2.465,5.541l-1.954,0.188c0.629-1.785,1.139-3.791,1.41-5.524
		L366.279,102.728z"/>
	<path fill="#FFFFFF" d="M383.857,99.328c0,4.572-2.227,6.935-5.541,6.935c-3.621,0-5.389-3.127-5.389-6.73
		c0-3.706,2.04-6.782,5.575-6.782C382.327,92.75,383.857,96.132,383.857,99.328z M376.072,99.48
		c-0.017,2.516,0.833,4.318,2.346,4.318s2.295-1.803,2.295-4.369c0-2.295-0.765-4.216-2.295-4.216
		C376.82,95.214,376.072,97.22,376.072,99.48z"/>
	<path fill="#FFFFFF" d="M396.165,100.568c0,3.757-1.699,5.694-4.844,5.694c-3.196,0-4.726-1.938-4.726-5.728v-7.582h2.991v7.938
		c0,2.022,0.68,2.907,1.785,2.907c1.139,0,1.802-0.816,1.802-2.907v-7.938h2.991V100.568z"/>
	<path fill="#FFFFFF" d="M407.572,95.555h-3.009v10.521h-2.991V95.555h-2.975v-2.618h8.975V95.555z"/>
	<path fill="#FFFFFF" d="M418.333,105.805c-0.459,0.203-1.479,0.441-2.771,0.441c-4.164,0-6.136-2.906-6.136-6.544
		c0-4.709,3.06-6.936,6.442-6.936c1.325,0,2.243,0.271,2.617,0.476l-0.544,2.431c-0.441-0.204-1.07-0.391-1.903-0.391
		c-1.887,0-3.468,1.292-3.468,4.25c0,2.736,1.359,4.164,3.484,4.164c0.68,0,1.445-0.136,1.904-0.306L418.333,105.805z"/>
	<path fill="#FFFFFF" d="M431.354,99.328c0,4.572-2.227,6.935-5.541,6.935c-3.621,0-5.389-3.127-5.389-6.73
		c0-3.706,2.04-6.782,5.575-6.782C429.824,92.75,431.354,96.132,431.354,99.328z M423.569,99.48
		c-0.017,2.516,0.833,4.318,2.346,4.318s2.295-1.803,2.295-4.369c0-2.295-0.765-4.216-2.295-4.216
		C424.317,95.214,423.569,97.22,423.569,99.48z"/>
	<path fill="#FFFFFF" d="M446.943,106.076h-2.822l-0.187-4.691c-0.068-1.394-0.136-3.145-0.119-4.879h-0.051
		c-0.34,1.581-0.799,3.366-1.156,4.624l-1.292,4.708h-2.261l-1.173-4.674c-0.322-1.258-0.696-3.043-0.969-4.658h-0.051
		c-0.051,1.632-0.136,3.485-0.204,4.896l-0.221,4.675h-2.687l0.901-13.14h3.654l1.055,4.25c0.374,1.563,0.747,3.161,1.003,4.708
		h0.067c0.272-1.513,0.646-3.195,1.037-4.726l1.122-4.232h3.604L446.943,106.076z"/>
	<path fill="#FFFFFF" d="M457.466,106.076h-7.462v-13.14h7.207v2.499h-4.216v2.635h3.995v2.447h-3.995v3.06h4.471V106.076z"/>
</g>
</svg>
