<?xml version="1.0" encoding="utf-8"?>
<!-- Generator: Adobe Illustrator 14.0.0, SVG Export Plug-In . SVG Version: 6.00 Build 43363)  -->
<!DOCTYPE svg PUBLIC "-//W3C//DTD SVG 1.1//EN" "http://www.w3.org/Graphics/SVG/1.1/DTD/svg11.dtd">
<svg version="1.1" id="Camada_1" xmlns="http://www.w3.org/2000/svg" xmlns:xlink="http://www.w3.org/1999/xlink" x="0px" y="0px"
	 width="595.28px" height="62.667px" viewBox="0 356.778 595.28 62.667" enable-background="new 0 356.778 595.28 62.667"
	 xml:space="preserve">
<g>
	<g>
		<path fill="#FFFFFF" d="M505.091,411.284h-2.664l-0.586,2.188h-1.922l2.824-9.789h2.189l2.721,9.789h-2.043 M503.825,405.563
			H503.8l-1.012,4.065h1.912L503.825,405.563z"/>
		<path fill="#FFFFFF" d="M515.405,409.003c0-0.843-0.301-1.151-0.732-1.151c-0.568,0-0.787,0.477-0.787,1.026v4.625h-1.92v-4.5
			c0-0.926-0.354-1.151-0.668-1.151c-0.631,0-0.852,0.633-0.852,1.558v4.094h-1.92v-5.776c0-0.699-0.018-1.151-0.049-1.526h1.748
			c0.025,0.32,0.053,0.728,0.053,1.218h0.018c0.293-0.801,0.781-1.332,1.793-1.332c0.912,0,1.371,0.489,1.641,1.218
			c0.277-0.687,0.727-1.218,1.736-1.218c1.395,0,1.859,1.179,1.859,2.635v4.781h-1.92"/>
		<path fill="#FFFFFF" d="M524.06,410.435h-3.73c0,0.871,0.486,1.667,1.574,1.667c0.652,0,1.311-0.281,1.781-0.571l0.037,1.668
			c-0.617,0.265-1.346,0.419-2.006,0.419c-2.223,0-3.209-1.556-3.209-3.787c0-1.962,0.992-3.739,2.805-3.739
			c0.576,0,2.748,0,2.748,3.809 M522.312,409.229c0-0.925-0.205-1.794-1-1.794c-0.982,0-0.982,1.405-0.982,1.794H522.312z"/>
		<path fill="#FFFFFF" d="M525.192,407.727c0-0.699-0.016-1.147-0.049-1.526h1.752c0.01,0.433,0.033,0.881,0.045,1.315h0.027
			c0.389-0.781,0.658-1.429,1.76-1.429h0.281v2.049c-0.207-0.059-0.377-0.086-0.643-0.086c-1.121,0-1.252,1.124-1.252,2.185v3.271
			h-1.922"/>
		<path fill="#FFFFFF" d="M529.981,402.991h1.924v1.962h-1.924 M529.981,406.201h1.924v7.305h-1.924V406.201z"/>
		<path fill="#FFFFFF" d="M537.774,413.311c-0.561,0.168-1.129,0.307-1.736,0.307c-2.449,0-2.996-2.354-2.996-3.686
			c0-2.247,1.121-3.844,3.139-3.844c0.633,0,0.971,0.184,1.533,0.353l-0.098,1.67c-0.354-0.156-0.721-0.312-1.117-0.312
			c-1.461,0-1.461,1.853-1.461,2.134c0,1.542,0.83,2.034,1.559,2.034c0.4,0,0.768-0.171,1.117-0.325"/>
		<path fill="#FFFFFF" d="M539.136,406.552c0.498-0.183,1.354-0.464,2.039-0.464c2.227,0,2.738,1.066,2.738,2.693v2.665
			c0,1.079,0.012,1.569,0.049,2.061h-1.75l-0.051-1.011h-0.023c-0.084,0.45-0.824,1.12-1.736,1.12c-1.18,0-1.957-0.881-1.957-2.213
			c0-2.442,2.469-2.454,3.139-2.454h0.578c0-1.402-0.9-1.402-1.174-1.402c-0.492,0-1.012,0.126-1.766,0.645 M542.161,409.986
			c-0.766,0-1.967,0.056-1.967,1.277c0,0.952,0.67,0.952,0.83,0.952c0.17,0,1.137-0.029,1.137-1.812V409.986L542.161,409.986z"/>
		<path fill="#FFFFFF" d="M548.997,408.039c-0.514-0.241-0.986-0.393-1.545-0.393c-0.502,0-0.717,0.279-0.717,0.533
			c0,0.45,0.279,0.602,1.324,1.05c0.656,0.28,1.326,0.757,1.326,2.132c0,1.627-1.059,2.257-2.334,2.257
			c-0.559,0-1.414-0.069-2.08-0.35l0.049-1.709c0.463,0.32,1.049,0.502,1.582,0.502c0.898,0,0.961-0.366,0.961-0.687
			c0-0.322-0.5-0.463-1.33-0.857c-0.666-0.32-1.32-0.936-1.32-2.241c0-0.786,0.482-2.188,2.367-2.188
			c0.791,0,1.447,0.169,1.764,0.296"/>
		<line fill="#FFFFFF" x1="589.864" y1="398.893" x2="500.079" y2="398.893"/>
		<rect x="500.075" y="398.436" fill="#FFFFFF" width="89.789" height="0.916"/>
		<path fill="#FFFFFF" d="M445.993,409.003h1.125c0.641,0,1.074,0.359,1.074,1.182c0,0.586-0.299,0.974-0.697,1.051v0.017
			c0.131,0.028,0.281,0.108,0.393,0.521l0.475,1.704h-0.707l-0.352-1.454c-0.086-0.354-0.258-0.469-0.502-0.469h-0.148v1.923h-0.66
			 M446.921,410.953c0.352,0,0.586-0.226,0.586-0.68c0-0.509-0.217-0.637-0.586-0.637h-0.268v1.317H446.921z"/>
		<polyline fill="#FFFFFF" points="448.636,409.005 450.528,409.005 450.528,409.66 449.298,409.66 449.298,410.851 
			450.462,410.851 450.462,411.506 449.298,411.506 449.298,412.826 450.581,412.826 450.581,413.479 448.636,413.479 		"/>
		<path fill="#FFFFFF" d="M452.394,410.972h1.168v2.342c-0.188,0.122-0.508,0.229-0.979,0.229c-1.152,0-1.768-0.975-1.768-2.3
			c0-1.328,0.615-2.3,1.768-2.3c0.412,0,0.74,0.115,0.877,0.192l-0.037,0.736c-0.211-0.163-0.5-0.275-0.828-0.275
			c-0.705,0-1.08,0.717-1.08,1.647c0,1.005,0.367,1.646,1.043,1.646c0.154,0,0.295-0.036,0.383-0.082v-1.206h-0.547"/>
		<rect x="454.05" y="409.005" fill="#FFFFFF" width="0.662" height="4.473"/>
		<path fill="#FFFFFF" d="M456.513,408.943c0.748,0,1.438,0.689,1.438,2.3c0,1.61-0.689,2.3-1.438,2.3s-1.434-0.69-1.434-2.3
			C455.079,409.632,455.765,408.943,456.513,408.943 M456.513,412.917c0.418,0,0.754-0.442,0.754-1.673
			c0-1.232-0.336-1.674-0.754-1.674s-0.75,0.441-0.75,1.674C455.763,412.475,456.095,412.917,456.513,412.917"/>
		<polyline fill="#FFFFFF" points="458.306,409.005 459.091,409.005 460.288,412.517 460.298,412.517 460.298,409.005 
			460.896,409.005 460.896,413.479 460.106,413.479 458.915,409.993 458.903,409.993 458.903,413.479 458.306,413.479 		"/>
		<path fill="#FFFFFF" d="M463.2,412.405h-1.236l-0.254,1.074h-0.662l1.207-4.473h0.723l1.16,4.473h-0.682 M463.063,411.774
			l-0.455-2.089h-0.01l-0.494,2.089H463.063z"/>
		<polyline fill="#FFFFFF" points="464.263,409.005 464.923,409.005 464.923,412.826 466.106,412.826 466.106,413.479 
			464.263,413.479 		"/>
		<path fill="#FFFFFF" d="M468.7,408.943c0.746,0,1.434,0.689,1.434,2.3c0,1.61-0.688,2.3-1.434,2.3s-1.434-0.69-1.434-2.3
			C467.267,409.632,467.954,408.943,468.7,408.943 M468.7,412.917c0.416,0,0.756-0.442,0.756-1.673c0-1.232-0.34-1.674-0.756-1.674
			s-0.754,0.441-0.754,1.674C467.946,412.475,468.284,412.917,468.7,412.917"/>
		<polyline fill="#FFFFFF" points="470.497,409.005 472.321,409.005 472.321,409.66 471.159,409.66 471.159,410.878 
			472.269,410.878 472.269,411.531 471.159,411.531 471.159,413.479 470.497,413.479 		"/>
		<polyline fill="#FFFFFF" points="472.632,409.005 474.452,409.005 474.452,409.66 473.29,409.66 473.29,410.878 474.403,410.878 
			474.403,411.531 473.29,411.531 473.29,413.479 472.632,413.479 		"/>
		<rect x="474.769" y="409.005" fill="#FFFFFF" width="0.658" height="4.473"/>
		<path fill="#FFFFFF" d="M478.231,413.383c-0.137,0.089-0.453,0.163-0.781,0.163c-1.092,0-1.654-0.996-1.654-2.303
			c0-1.31,0.563-2.3,1.637-2.3c0.365,0,0.662,0.122,0.799,0.186l-0.031,0.736c-0.143-0.083-0.35-0.241-0.686-0.241
			c-0.551,0-1.018,0.46-1.018,1.62c0,1.162,0.467,1.622,1.018,1.622c0.318,0,0.527-0.094,0.686-0.231"/>
		<polyline fill="#FFFFFF" points="478.552,409.005 480.444,409.005 480.444,409.66 479.212,409.66 479.212,410.851 480.38,410.851 
			480.38,411.506 479.212,411.506 479.212,412.826 480.497,412.826 480.497,413.479 478.552,413.479 		"/>
		<polyline fill="#FFFFFF" points="481.958,409.005 483.782,409.005 483.782,409.66 482.618,409.66 482.618,410.878 
			483.729,410.878 483.729,411.531 482.618,411.531 482.618,413.479 481.958,413.479 		"/>
		<path fill="#FFFFFF" d="M485.38,408.943c0.748,0,1.436,0.689,1.436,2.3c0,1.61-0.688,2.3-1.436,2.3s-1.438-0.69-1.438-2.3
			C483.942,409.632,484.632,408.943,485.38,408.943 M485.38,412.917c0.416,0,0.752-0.442,0.752-1.673
			c0-1.232-0.336-1.674-0.752-1.674c-0.414,0-0.75,0.441-0.75,1.674C484.63,412.475,484.966,412.917,485.38,412.917"/>
		<path fill="#FFFFFF" d="M487.146,409.003h1.125c0.643,0,1.076,0.359,1.076,1.182c0,0.586-0.297,0.974-0.697,1.051v0.017
			c0.133,0.028,0.281,0.108,0.396,0.521l0.471,1.704h-0.699l-0.359-1.454c-0.088-0.354-0.258-0.469-0.504-0.469h-0.146v1.923h-0.662
			 M488.077,410.953c0.35,0,0.588-0.226,0.588-0.68c0-0.509-0.215-0.637-0.588-0.637h-0.27v1.317H488.077z"/>
		<polyline fill="#FFFFFF" points="491.12,409.66 490.317,409.66 490.317,409.003 492.581,409.003 492.581,409.66 491.782,409.66 
			491.782,413.479 491.12,413.479 		"/>
		<polyline fill="#FFFFFF" points="492.813,409.005 493.478,409.005 493.478,410.826 494.542,410.826 494.542,409.005 
			495.204,409.005 495.204,413.479 494.542,413.479 494.542,411.506 493.478,411.506 493.478,413.479 492.813,413.479 		"/>
		<polyline fill="#FFFFFF" points="495.708,409.005 497.603,409.005 497.603,409.66 496.374,409.66 496.374,410.851 497.54,410.851 
			497.54,411.506 496.374,411.506 496.374,412.826 497.655,412.826 497.655,413.479 495.708,413.479 		"/>
		<path fill="#FFFFFF" d="M486.499,368.833c0.955,1.122,2.615,1.783,3.592,2.91c-0.695-3.329-3.293-6.048-6.367-6.695
			C485.22,366.163,485.538,367.707,486.499,368.833 M449.552,377.27c2.119-4.554,5.279-3.59,6.617-7.93
			c-0.76,1.332-4.207,1.894-5.807,5.305c0.814-2.028,0.402-5.127,1.787-6.803C448.011,370.86,449.774,375.739,449.552,377.27
			 M453.386,388.191c0.381,1.776-0.732,4.335,1.039,6.78c-1.838-2.034-5.727-2.552-7.32-5.648c1.99,7.563,7.15,6.005,9.49,7.651
			C454.675,394.25,456.243,392.441,453.386,388.191 M452.792,392.944c-1.145-4.229,0.889-5.688-0.656-9.747
			c-0.162,2.285-1.701,3.4-0.662,7.579c-1.834-3.542-4.674-4.859-5.496-7.288C446.034,390.127,451.431,391.109,452.792,392.944
			 M461.079,400.032c-1.588-2.174-0.502-3.4-4.967-7.348c0.947,1.441-0.027,3.255,2.979,6.071c-2.941-1.714-7.004-0.979-8.961-3.275
			C453.487,401.842,459.401,399.242,461.079,400.032 M482.675,398.755c3.01-2.816,2.037-4.63,2.98-6.071
			c-4.463,3.947-3.379,5.174-4.971,7.348c1.68-0.79,7.594,1.811,10.957-4.551C489.685,397.776,485.618,397.041,482.675,398.755
			 M487.345,394.971c1.77-2.445,0.654-5.004,1.037-6.78c-2.857,4.25-1.287,6.06-3.209,8.783c2.336-1.646,7.502-0.087,9.488-7.651
			C493.071,392.419,489.181,392.938,487.345,394.971 M480.216,400.334c-1.746-0.462-3.541-0.69-4.879-0.723
			c-1.668-0.041-3.16,0.271-4.453,0.748c-1.291-0.477-2.781-0.788-4.451-0.748c-1.338,0.033-3.135,0.261-4.877,0.723
			c-2.684,0.705-5.01,1.255-7.027,0.241c1.939,1.701,4.201,2.308,7.469,1.96c2.723-0.291,4.916-1.633,7.48-1.618
			c0.033,0,0.068,0.002,0.1,0.002c-2.701,1.353-4.229,3.251-4.229,3.251l1.238,0.165c0,0,1.303-2.589,4.297-3.26
			c2.994,0.671,4.299,3.26,4.299,3.26l1.234-0.165c0,0-1.525-1.899-4.227-3.251c0.033,0,0.064-0.002,0.102-0.002
			c2.563-0.016,4.758,1.327,7.48,1.618c3.268,0.348,5.531-0.259,7.465-1.96C485.22,401.589,482.897,401.039,480.216,400.334
			 M452.319,378.613c-1.105,2.1-2.828,2.581-2.643,6.917c-0.93-3.853-3.146-5.285-3.117-7.747c-1.547,6.421,2.576,7.186,3.637,9.875
			C450.038,383.803,452.528,383.025,452.319,378.613 M453.866,373.653c-0.385,0.535-0.656,0.762-1.686,1.598
			c-1.4,1.142-2.521,2.64-2.992,4.829c0.107-2.355-1.363-5.737-0.387-8.203c-3.789,5.287,0.217,8.454,0.357,10.37
			C450.146,378.561,452.397,378.532,453.866,373.653 M492.579,380.081c-0.477-2.189-1.592-3.687-2.994-4.829
			c-1.027-0.836-1.297-1.063-1.686-1.598c1.471,4.878,3.727,4.908,4.707,8.594c0.143-1.916,4.145-5.083,0.361-10.37
			C493.942,374.343,492.472,377.726,492.579,380.081 M495.79,383.489c-0.82,2.429-3.66,3.746-5.494,7.288
			c1.041-4.179-0.502-5.294-0.662-7.579c-1.545,4.058,0.488,5.518-0.658,9.747C490.339,391.109,495.735,390.127,495.79,383.489
			 M489.45,378.613c-0.211,4.412,2.275,5.19,2.121,9.046c1.059-2.69,5.18-3.454,3.639-9.875c0.027,2.461-2.188,3.894-3.117,7.747
			C492.272,381.194,490.56,380.713,489.45,378.613 M455.271,368.833c0.955-1.126,1.275-2.669,2.775-3.785
			c-3.076,0.647-5.67,3.367-6.369,6.695C452.653,370.616,454.315,369.955,455.271,368.833 M485.599,369.34
			c1.338,4.34,4.498,3.375,6.615,7.93c-0.221-1.531,1.537-6.41-2.596-9.428c1.383,1.676,0.971,4.775,1.787,6.803
			C489.804,371.234,486.354,370.672,485.599,369.34 M474.872,371.806c-0.799-0.326-1.641-0.556-2.516-0.682
			c-0.008,0.186-0.01,0.374-0.014,0.56c0.809,0.118,1.59,0.332,2.32,0.631C474.761,372.164,474.833,371.994,474.872,371.806
			 M474.229,366.434l0.172-0.15l-0.32-0.132l-0.85-0.019l-0.221,0.151l-0.494-0.04l-0.006,0.12c0.316,0.019,0.625,0.048,0.871,0.09
			l0.408-0.039L474.229,366.434z M472.603,384.444c0-0.144-0.189-0.283-0.469-0.415l-0.053-0.001
			c-0.004,0.117-0.012,0.681-0.018,0.958C472.411,384.831,472.603,384.667,472.603,384.444 M462.815,373.829
			c0.023-0.115,0.041-0.205,0.074-0.306c-0.107,0.025-0.23,0.036-0.35,0.034L462.815,373.829z M470.901,398.399
			c9.504,0,17.236-7.643,17.236-17.04c0-8.81-6.805-16.082-15.49-16.95c-0.008,0.033-0.014,0.065-0.016,0.097
			c-0.043,0.167-0.068,0.316-0.096,0.447c3.889,0.376,7.393,2.081,10.037,4.645l-1.902,1.879l0.074-0.331l-0.248-0.108l-0.346-0.02
			l0.074-0.217l-0.229-0.769l-0.477-0.514l-1.484-0.776l-0.127,0.134l-0.27,0.079c0.51,0.745,0.789,1.602,0.789,2.469
			c0,0.115-0.004,0.227-0.012,0.335l0.732,0.915l-0.34,0.08l0.225,0.34l-0.648,0.642l-0.264-0.492
			c-0.123,0.344-0.289,0.663-0.488,0.96c0.049,0.044,0.096,0.086,0.145,0.133l-2,1.977c-0.123-0.113-0.252-0.223-0.379-0.33
			c-0.193,0.089-0.387,0.17-0.588,0.248c0.061,0.042,0.115,0.084,0.172,0.128l-0.104,0.104l-0.23,0.128l-0.09,0.232l-0.146-0.145
			l-0.422,0.142l0.115,0.182l0.291-0.078l0.193,0.015l0.012-0.102l0.15-0.072l0.041-0.087l0.264-0.07l0.203-0.009
			c0.043,0.033,0.082,0.069,0.119,0.106l-0.789,0.786l-0.063-0.086l-0.83,0.138l-0.188,0.183l-0.18,0.021l0.518-0.486l-0.184-0.093
			l-0.482,0.638l0.141-0.015l-0.01,0.233l0.176,0.067l0.035,0.251l-0.291-0.057l-0.297,0.055l-0.73-0.37
			c0,0-0.041,1.934-0.061,2.907c1.721,0.571,3.545,1.396,3.545,3.567c0,0.95-0.416,1.719-1.238,2.288l0.006,0.002
			c-0.008,0.009-0.023,0.019-0.035,0.025l-0.004-0.001c-0.018,0.011-0.037,0.023-0.055,0.036c-0.695,0.455-1.592,0.697-2.367,0.938
			c-0.006,0-0.023,1.517-0.023,1.517c1.236,0.608,2.732,1.49,2.592,4.013c-0.018,0.618-0.26,0.789-0.471,0.844v0.004
			c-0.719,0.176-1.463,0.292-2.229,0.347c-0.006,0.196-0.006,0.382-0.01,0.556c3.32-0.225,6.322-1.612,8.594-3.751l2,1.978
			c-2.998,2.852-7.07,4.606-11.549,4.606c-4.455,0-8.508-1.737-11.5-4.561l2.004-1.978c2.248,2.096,5.203,3.465,8.469,3.699
			c-0.004-0.17-0.006-0.356-0.01-0.555c-3.111-0.237-5.922-1.538-8.068-3.537l0.537-0.529l0.732,0.086l0.389-0.415l1.025,0.033
			l0.15-0.35l-0.037-0.151c1.482,1.114,3.273,1.847,5.221,2.045c-0.004-0.214-0.01-0.402-0.012-0.555
			c-2.15-0.239-4.094-1.158-5.604-2.536l2.002-1.98c0.486,0.43,1.033,0.793,1.623,1.076c0.043-0.188,0.111-0.363,0.207-0.519
			c-0.525-0.254-1.002-0.574-1.434-0.948l2.01-1.985c0.314,0.252,0.682,0.451,1.072,0.589c-0.008-0.197-0.008-0.402-0.014-0.597
			c-0.234-0.1-0.461-0.232-0.66-0.386l0.563-0.561c-0.197-0.06-0.396-0.122-0.6-0.189l-0.375,0.374
			c-0.189-0.211-0.355-0.447-0.484-0.704c-0.346-0.151-0.678-0.324-0.99-0.524c-1.23-0.802-1.861-1.936-1.861-3.364
			c0-1.091,0.313-1.918,0.814-2.56l-1.994-1.975c1.438-1.359,3.285-2.295,5.34-2.601c0-0.193-0.008-0.38-0.008-0.558
			c-2.207,0.313-4.191,1.311-5.73,2.768l-0.338-0.333c-0.074,0.132-0.164,0.301-0.268,0.514l0.209,0.21
			c-1.717,1.812-2.787,4.232-2.83,6.894h-2.832c0.043-3.435,1.428-6.557,3.66-8.872l0.9,0.888c0.043,0,0.084,0,0.125-0.004
			c0.164-0.012,0.342-0.06,0.514-0.146l-1.143-1.132c0.605-0.577,1.266-1.099,1.971-1.557c0.057-0.188,0.109-0.353,0.139-0.412
			c0.033-0.069,0.215-0.305,0.432-0.573c-1.072,0.588-2.061,1.313-2.938,2.15l-2.004-1.977c2.629-2.526,6.086-4.208,9.932-4.591
			c-0.016-0.067-0.023-0.12-0.023-0.12c-0.025-0.13-0.057-0.276-0.084-0.424c-8.662,0.891-15.434,8.151-15.434,16.943
			C453.667,390.756,461.399,398.399,470.901,398.399 M474.62,386.627v-0.015l0.006,0.013
			C474.626,386.626,474.624,386.627,474.62,386.627 M482.966,369.991c2.818,2.92,4.564,6.86,4.609,11.195h-2.832
			c-0.025-2.147-0.557-4.175-1.479-5.978l0.029-0.049l0.195,0.102l0.043-0.149l-0.508-0.877l-0.598-0.82l-0.705-0.58
			c-0.24-0.299-0.492-0.587-0.758-0.865L482.966,369.991z M479.358,373.58l0.684,0.029l0.158,0.194l-0.078,0.284l0.941,0.582
			l0.188-0.024l1.209,1.368l0.498-0.171c0.766,1.63,1.201,3.439,1.225,5.345h-2.836c-0.012-0.732-0.1-1.443-0.258-2.129l0.127-0.173
			l0.174-0.875l-0.125-0.946l-0.344-1.083l-0.795-1.143l0.195,0.102l0.096-0.098l-0.633-0.423l-0.045,0.14l0.637,0.896l0.357,0.735
			l0.258,0.728l0.08,0.49l0.133,0.823l-0.24,0.019c0,0-0.271-0.506-0.354-0.715l0.123-0.186l-0.24-0.343v-0.342l-0.172-0.215
			l-0.215,0.027c-0.08-0.141-0.156-0.28-0.242-0.419l0.15,0.079l0.045-0.041l-0.084-0.176l0.186-0.104l-0.086-0.102l-0.27,0.102
			l0.098-0.425l-0.164-0.09l-0.143,0.339c-0.309-0.457-0.654-0.892-1.029-1.295L479.358,373.58z M478.792,380.143l0.512-0.273
			l0.514-0.081l0.119-0.249l0.285-0.173l0.113-0.239l0.088-0.413c0.039,0.145,0.082,0.294,0.115,0.443l-0.277,0.809l-0.008,0.274
			l0.4-0.528c0.078,0.481,0.127,0.973,0.139,1.474h-2.48l-0.057-0.213l0.283-0.227l0.057-0.136l0.129-0.092l0.334-0.034l0.035-0.149
			L478.792,380.143z M475.392,378.217l0.252-0.057l-0.008-0.062l-0.256-0.167l0.09-0.527l0.301-0.3
			c0.189,0.213,0.363,0.438,0.525,0.675l-0.107,0.324l-0.273-0.195l-0.215,0.058l0.105,0.193h0.104l-0.109,0.284l-0.084-0.113
			L475.392,378.217z M476.478,387.515l-0.611-0.173l-0.184,0.068l-0.346-0.262l-0.326-0.117c0.158-0.113,0.314-0.233,0.463-0.36
			l0.504,0.352l0.385,0.201l0.197,0.188L476.478,387.515z M476.167,376.713l2-1.981c0.475,0.501,0.885,1.054,1.242,1.646
			l-0.25,0.068l0.016,0.442l0.75,0.467c0.184,0.404,0.338,0.822,0.471,1.254l-0.135,0.189l-0.27,0.169l-0.068,0.414l-0.184,0.1
			l-0.156,0.181l-0.158-0.056l-0.275-0.012l0.164-0.215l0.111-0.559l0.186-0.114l-0.539-0.512l-0.406,0.136l-0.092,0.376
			l-0.252,0.274l-0.268-0.218l-0.09-0.229l0.148-0.092l0.088,0.15l0.121-0.042l-0.055-0.254l-0.176-0.009l-0.012,0.102l-0.115,0.024
			l-0.623-0.718l-0.213-0.16l0.084-0.085l0.186-0.066l-0.176-0.067c0,0-0.217,0.049-0.24,0.049l0.123,0.155l-0.316-0.006
			C476.603,377.23,476.394,376.963,476.167,376.713 M477.183,387.253l-0.27-0.268l0.207-0.269l0.266-0.525l-0.104-0.148l0.176-0.389
			l-0.021-0.352l-0.104-0.365l-0.248-0.087l-0.09,0.208l-0.15-0.04c0.215-0.334,0.438-0.651,0.596-1.022l0.256-0.109l0.137-0.19
			l0.07,0.08l0.176-0.206l-0.143-0.171l0.131-0.034l0.23,0.092l0.438,0.011l0.266-0.137l0.689-0.184l-0.127-0.227l-0.047-0.274
			l0.371,0.161l0.139-0.08l-0.066-0.286l-0.459,0.169l-0.5-0.102l-0.383-0.77h2.168c-0.098,2.466-1.115,4.698-2.736,6.368
			l-0.295-0.293l0.127-0.395l-0.23-0.864L477.183,387.253z M477.569,392.714l0.264-0.563l-0.104-0.25l0.393-0.343v-0.204
			l-0.332-0.208l0.277-0.543l0.416-0.538l-0.416-0.443h-0.313l-0.195-0.311c0.17-0.134,0.334-0.274,0.488-0.422l2.01,1.981
			C479.304,391.576,478.47,392.197,477.569,392.714 M480.065,390.099l0.221-0.241l-0.209-1.084l-0.141-0.058l0.084-0.182
			l-0.471-0.15l-0.096,0.39l-0.045,0.49l-0.1,0.091l-0.865-0.855c1.719-1.77,2.807-4.142,2.898-6.758h2.834
			c-0.092,3.388-1.496,6.46-3.727,8.74L480.065,390.099z M480.843,390.87c2.334-2.378,3.799-5.588,3.896-9.129h2.83
			c-0.098,4.313-1.879,8.224-4.721,11.107L480.843,390.87z M463.798,388.156c-0.203-0.209-0.402-0.428-0.586-0.655l0.086-0.708
			l-0.299-0.68l-0.07-1.063l-0.336-0.645l0.072-0.403l-0.408-0.765l-0.352-0.173l0.145-0.409l-0.15-0.323l0.148-0.369h0.387
			l0.135-0.223h0.662l0.104,0.191l-0.123,0.666l-0.084,0.117l0.254,0.534l-0.166,0.09l-0.113-0.143l-0.049,0.053l0.109,0.317
			l0.199,0.372l0.09-0.009l0.051-0.333l-0.092-0.121l-0.012-0.226l-0.025-0.464l0.135-0.822l-0.131-0.221h0.473
			c0.094,1.717,0.82,3.269,1.949,4.437L463.798,388.156z M461.925,382.685l-0.268,0.414h-0.459l-0.037-0.027
			c-0.076-0.435-0.127-0.878-0.143-1.331h0.852l-0.201,0.675L461.925,382.685z M462.856,380.762l0.055-0.559l0.332-0.192
			l0.602,0.105l0.092,0.108c-0.055,0.315-0.086,0.634-0.096,0.962h-0.678L462.856,380.762z M465.731,382.854l0.141-0.07l0.373,0.277
			l-0.162,0.128l0.416,0.274l-0.025-0.292l0.223-0.365l0.23,0.244l0.24,0.337l-0.432,0.095l0.197,0.382l0.297-0.155l-0.037-0.123
			l0.225-0.149l0.129-0.61c0.162,0.362,0.381,0.694,0.652,0.983l-2.002,1.977c-0.957-0.991-1.594-2.282-1.756-3.715l0.412,0.432
			l0.385-0.006L465.731,382.854z M463.679,374.685l2.004,1.977c-0.418,0.455-0.775,0.962-1.063,1.514l-0.141-0.009l-0.281,0.089
			l-0.098-0.009l-0.299,0.273l0.379-0.06l0.342-0.084c-0.023,0.043-0.043,0.084-0.061,0.128l-0.299,0.183h-0.143l-0.439,0.332
			l-0.424-0.036l-0.617,1.134l0.125,0.227l-0.334,0.366l-0.053,0.477h-1.266C461.054,378.675,462.062,376.395,463.679,374.685
			 M461.091,389.617l0.639,0.369l0.131,0.086l-0.461,0.454c-0.215-0.217-0.422-0.445-0.623-0.677L461.091,389.617z M460.46,381.741
			c0.012,0.271,0.029,0.542,0.063,0.808l-0.346,0.078l-0.07,0.349l-0.725,0.906l0.02,1.249l-0.742,0.244l-0.406,0.004
			c-0.377-1.153-0.594-2.374-0.629-3.638H460.46z M457.663,385.36l-0.166-0.032l-0.16-0.174l-0.793-0.067l0.246,0.332l-0.738-0.139
			l0.195-0.176l-0.18-0.174l-0.531,0.227l-0.193,0.35l0.076,0.795l0.611,1.449l0.293,0.452l0.168,0.062l-0.461-0.866l-0.105-0.443
			l0.105-0.109l-0.064-0.242l0.281,0.037l0.424,0.639l0.109,0.042l-0.014-0.465l0.174,0.098l0.039,0.253l0.451,0.12l0.186-0.134
			l0.066,0.044l-0.012,0.341l0.201,0.242l0.24,0.051l0.521,0.881l0.316,0.087l0.102-0.411c0.557,0.904,1.213,1.74,1.955,2.491
			l-2,1.978c-2.873-2.892-4.676-6.818-4.773-11.156h2.83C457.099,382.996,457.304,384.21,457.663,385.36 M458.884,369.943l2,1.978
			c-2.328,2.419-3.779,5.679-3.824,9.266h-2.832C454.274,376.828,456.04,372.869,458.884,369.943 M479.384,368.923l-0.172-0.274
			l-0.367-0.183l-0.291,0.218l0.371,0.193l0.416,0.297L479.384,368.923z M477.671,376.822l0.012,0.217l0.492-0.145l0.146-0.297
			l-0.338-0.438l0.178-0.269l0.461,0.323l0.082-0.067l-0.092-0.066l-0.104-0.193l0.189-0.108l-0.182-0.236l-0.432,0.215
			l-0.148,0.256l-0.086,0.233l0.189,0.312l-0.07,0.149L477.671,376.822z M457.194,389.381l0.029-0.128l-0.252-0.546l-0.305-0.112
			L457.194,389.381z M468.772,378.858c0,0.472,0.289,0.8,0.814,1.088c0,0-0.002-0.08-0.006-0.21l-0.33-0.328l0.174-0.313
			l0.143-0.041c-0.008-0.547-0.021-1.161-0.021-1.246l-0.025,0.002C469.034,378.075,468.772,378.398,468.772,378.858"/>
		<path fill="#FFFFFF" d="M471.935,390.993c0.891,0.443,1.709,1.057,2.051,2.222c0.152-1.928-0.943-2.765-2.025-3.328
			L471.935,390.993"/>
		<path fill="#FFFFFF" d="M477.841,371.425c0-1.751-1.285-3.694-4.434-4.379c-0.234-0.051-0.588-0.088-0.959-0.111
			c-0.008,0.265-0.025,0.869-0.025,0.869c-0.004,0.19-0.02,0.891-0.021,1.042c0.289,0.024,0.506,0.061,0.605,0.084
			c1.83,0.432,2.488,1.47,2.488,2.495c0,1.664-1.443,2.29-3.209,2.764c-0.193,0.053-0.389,0.102-0.588,0.151
			c-0.533,0.133-1.088,0.259-1.633,0.403c-0.195,0.054-0.387,0.107-0.58,0.166c-1.961,0.59-3.645,1.524-3.645,3.918
			c0,2.37,1.92,3.258,3.797,3.827c-0.012-0.68-0.023-1.368-0.035-2.054c-0.83-0.383-1.414-0.887-1.414-1.741
			c0-0.83,0.529-1.332,1.344-1.695c0.18-0.08,0.373-0.154,0.58-0.224c0.467-0.157,0.988-0.29,1.541-0.421
			c0.191-0.045,0.387-0.091,0.584-0.139C474.88,375.745,477.841,374.927,477.841,371.425"/>
		<path fill="#FFFFFF" d="M468.351,388.145c0.006,0.958,0.717,1.48,1.428,1.874c0-0.158-0.031-1.642-0.031-1.667
			c0.016-0.296,0.307-0.472,0.541-0.582c0.342-0.162,0.691-0.278,1.137-0.429c0.207-0.073,0.391-0.143,0.594-0.203
			c1.432-0.427,3.088-0.971,3.088-2.693c0-1.728-1.42-2.433-2.973-2.964c-0.014,0.55-0.031,1.351-0.039,1.906
			c0.658,0.256,1.092,0.565,1.092,1.059c0,0.615-0.666,0.971-1.143,1.151c-0.193,0.073-0.494,0.173-0.58,0.198
			c-0.379,0.118-0.787,0.253-1.172,0.393c-0.201,0.075-0.398,0.155-0.58,0.248C469.042,386.776,468.345,387.274,468.351,388.145"/>
		<path fill="#FFFFFF" d="M469.319,367.208c-0.953,0.27-1.516,0.625-1.725,0.695c-0.619,0.202-1.492,0.236-2.389,1.207
			c-0.16,0.171-0.549,0.658-0.828,1.053c-0.271,0.386-0.283,1.008-0.48,1.342c-0.291,0.483-0.221,0.762-0.221,0.762l0.006,0.014
			c-0.008,0.059-0.066,0.316-0.33,0.607c-0.301,0.328-0.699,0.512-1.164,0.438c0.404,0.2,0.973-0.082,0.973-0.082
			s-0.107,0.308-0.213,0.806c0.457-1.029,0.881-1.406,1.01-1.511c0.201,0.047,0.607,0.027,1.363-0.403
			c0.865-0.488,2.156-1.284,2.52-1.786c0.396-0.545,0.938-0.904,1.527-1.136C469.351,368.454,469.333,367.778,469.319,367.208
			 M465.567,370.565l-0.443,0.095l0.656-1.002l0.623,0.02L465.567,370.565z"/>
		<path fill="#FFFFFF" d="M471.095,388.027c-0.082,0.027-0.303,0.121-0.434,0.164c-0.143,0.055-0.326,0.126-0.326,0.178
			c0,0.015,0.133,7.426,0.133,7.588c0,1.526,0.793,1.536,0.793,0c0-0.107,0.158-8.036,0.158-8.036S471.229,387.979,471.095,388.027"
			/>
		<path fill="#FFFFFF" d="M470.282,385.582c0.244-0.083,0.486-0.157,0.717-0.227c0.168-0.053,0.328-0.102,0.473-0.149
			c0.012-0.465,0.145-6.917,0.17-8.09c-0.586,0.143-1.098,0.28-1.52,0.432C470.144,378.428,470.265,384.877,470.282,385.582"/>
		<path fill="#FFFFFF" d="M470.937,360.875c-2.211,0-1.273,3.24-1.098,4.296c0.012,0.048,0.182,7.316,0.215,8.983
			c0.336-0.087,0.668-0.167,0.99-0.246c0.232-0.058,0.457-0.113,0.668-0.165c0.033-1.606,0.193-8.543,0.201-8.585
			C472.048,364.027,473.204,360.875,470.937,360.875"/>
		<polyline fill="#FFFFFF" points="507.032,367.01 507.003,367.01 505.132,377.108 502.563,377.108 500.167,364.785 
			502.204,364.785 503.87,374.283 503.903,374.283 505.69,364.785 508.343,364.785 510.112,374.283 510.147,374.283 511.88,364.785 
			513.851,364.785 511.405,377.108 508.806,377.108 		"/>
		<path fill="#FFFFFF" d="M517.479,367.875c1.785,0,3.846,0.971,3.846,4.679c0,3.813-2.061,4.695-3.846,4.695
			s-3.859-0.882-3.859-4.695C513.62,368.846,515.694,367.875,517.479,367.875 M517.479,375.695c1.361,0,1.67-1.626,1.67-3.142
			c0-1.52-0.309-3.125-1.67-3.125c-1.363,0-1.682,1.605-1.682,3.125C515.798,374.069,516.116,375.695,517.479,375.695"/>
		<path fill="#FFFFFF" d="M522.632,369.515c0-0.564-0.02-1.093-0.068-1.5h1.902c0.02,0.546,0.068,1.112,0.068,1.66h0.037
			c0.26-0.706,0.918-1.801,2.227-1.801c0.137,0,0.238,0.036,0.357,0.054v2.048c-0.184-0.054-0.373-0.09-0.596-0.09
			c-0.867,0-1.82,0.548-1.82,2.243v4.979h-2.107"/>
		<rect x="528.485" y="363.867" fill="#FFFFFF" width="2.107" height="13.241"/>
		<path fill="#FFFFFF" d="M539.397,363.866v11.687c0,0.654,0.018,1.218,0.066,1.555h-1.973c-0.037-0.266-0.066-0.796-0.066-1.413
			h-0.053c-0.342,0.777-0.971,1.553-2.33,1.553c-2.178,0-3.076-2.154-3.076-4.678c0-2.966,1.139-4.696,3.025-4.696
			c1.258,0,1.957,0.741,2.262,1.448h0.037v-5.456 M535.622,375.641c1.238,0,1.668-1.396,1.668-3.106c0-1.766-0.48-3.055-1.639-3.055
			c-1.17,0-1.58,1.183-1.58,3.003C534.071,374.582,534.396,375.641,535.622,375.641"/>
		<polyline fill="#FFFFFF" points="546.345,364.785 548.521,364.785 548.521,369.799 552.044,369.799 552.044,364.785 
			554.22,364.785 554.22,377.108 552.044,377.108 552.044,371.67 548.521,371.67 548.521,377.108 546.345,377.108 		"/>
		<path fill="#FFFFFF" d="M562.296,376.665c-0.439,0.196-1.357,0.582-2.619,0.582c-2.822,0-4.045-2.101-4.045-4.553
			c0-2.719,1.375-4.821,3.605-4.821c1.885,0,3.504,1.147,3.504,4.855v0.424h-5.072c0,1.554,0.596,2.487,2.23,2.487
			c1.295,0,1.906-0.404,2.297-0.705 M560.7,371.775c0-1.606-0.512-2.419-1.463-2.419c-1.107,0-1.568,1.217-1.568,2.419H560.7z"/>
		<path fill="#FFFFFF" d="M564.628,368.545c0.598-0.283,1.43-0.671,2.773-0.671c2.719,0,3.35,1.376,3.35,3.654v3.972
			c0,0.654,0.068,1.253,0.121,1.607h-1.906c-0.102-0.354-0.119-0.796-0.119-1.236h-0.035c-0.525,0.739-1.189,1.376-2.449,1.376
			c-1.361,0-2.619-0.971-2.619-2.664c0-2.474,1.939-3.09,4.611-3.09h0.422v-0.337c0-0.9-0.422-1.729-1.631-1.729
			c-1.055,0-1.992,0.529-2.398,0.883 M568.776,372.658h-0.188c-1.801,0-2.873,0.389-2.873,1.712c0,0.832,0.527,1.395,1.348,1.395
			c1.258,0,1.713-0.97,1.713-2.594V372.658z"/>
		<rect x="572.825" y="363.867" fill="#FFFFFF" width="2.109" height="13.241"/>
		<path fill="#FFFFFF" d="M577.571,366.144l2.109-0.672v2.543h1.746v1.606h-1.746v4.713c0,0.971,0.338,1.254,0.949,1.254
			c0.377,0,0.646-0.105,0.797-0.195v1.555c-0.32,0.16-0.777,0.301-1.408,0.301c-1.564,0-2.447-0.743-2.447-2.649v-4.979h-1.395
			v-1.606h1.395"/>
		<path fill="#FFFFFF" d="M582.521,363.867h2.109v5.313h0.051c0.373-0.565,0.867-1.306,2.174-1.306c1.99,0,2.586,1.535,2.586,3.37
			v5.863h-2.109v-5.455c0-1.396-0.34-1.978-1.209-1.978c-1.105,0-1.492,0.971-1.492,2.137v5.296h-2.109"/>
		<path fill="#FFFFFF" d="M504.808,380.385c2.467,0,4.729,1.908,4.729,6.339c0,4.431-2.262,6.335-4.729,6.335
			s-4.732-1.904-4.732-6.335C500.075,382.293,502.341,380.385,504.808,380.385 M504.808,391.333c1.379,0,2.482-1.218,2.482-4.608
			c0-3.391-1.104-4.606-2.482-4.606c-1.377,0-2.484,1.216-2.484,4.606C502.323,390.114,503.431,391.333,504.808,391.333"/>
		<path fill="#FFFFFF" d="M510.956,385.293c0-0.566-0.02-1.093-0.068-1.5h1.906c0.016,0.548,0.066,1.111,0.066,1.659h0.037
			c0.256-0.706,0.918-1.8,2.227-1.8c0.137,0,0.236,0.034,0.355,0.052v2.05c-0.184-0.055-0.373-0.088-0.596-0.088
			c-0.865,0-1.822,0.547-1.822,2.24v4.979h-2.105"/>
		<path fill="#FFFFFF" d="M516.788,394.299c0.494,0.28,1.48,0.772,2.586,0.772c1.99,0,2.311-1.424,2.311-2.856v-0.865h-0.031
			c-0.342,0.707-0.938,1.535-2.313,1.535c-1.225,0-3.063-0.846-3.063-4.52c0-2.507,0.869-4.713,3.162-4.713
			c1.275,0,1.871,0.76,2.314,1.553h0.07c0-0.477,0.051-0.935,0.066-1.412h1.906c-0.037,0.477-0.072,0.953-0.072,1.429v6.709
			c0,2.84-0.83,4.874-4.047,4.874c-1.391,0-2.5-0.373-3.01-0.569 M520.065,391.278c1.334,0,1.855-0.986,1.855-3.053
			c0-1.906-0.693-2.932-1.697-2.913c-1.109,0.016-1.533,1.075-1.533,2.932C518.69,390.376,519.353,391.278,520.065,391.278"/>
		<path fill="#FFFFFF" d="M526.011,384.324c0.596-0.283,1.43-0.672,2.771-0.672c2.723,0,3.354,1.378,3.354,3.656v3.97
			c0,0.654,0.066,1.255,0.117,1.607h-1.904c-0.104-0.353-0.119-0.793-0.119-1.236h-0.037c-0.523,0.742-1.189,1.378-2.449,1.378
			c-1.359,0-2.621-0.97-2.621-2.665c0-2.474,1.943-3.092,4.613-3.092h0.424v-0.334c0-0.901-0.424-1.73-1.629-1.73
			c-1.061,0-1.996,0.53-2.4,0.884 M530.159,388.435h-0.186c-1.805,0-2.875,0.39-2.875,1.716c0,0.828,0.527,1.392,1.342,1.392
			c1.26,0,1.719-0.968,1.719-2.596V388.435z"/>
		<path fill="#FFFFFF" d="M534.259,385.293c0-0.566-0.018-1.093-0.066-1.5h1.971c0.018,0.459,0.072,0.933,0.072,1.394h0.043h-0.014
			c0.309-0.547,0.902-1.535,2.33-1.535c1.988,0,2.584,1.535,2.584,3.371v5.862h-2.105v-5.457c0-1.394-0.342-1.977-1.209-1.977
			c-1.104,0-1.5,0.971-1.5,2.136v5.297h-2.105"/>
		<path fill="#FFFFFF" d="M543.083,379.929h2.178v2.152h-2.178 M543.114,383.793h2.109v9.092h-2.109V383.793z"/>
		<polyline fill="#FFFFFF" points="547.188,390.997 550.933,385.452 547.308,385.452 547.308,383.793 553.038,383.793 
			553.038,385.666 549.362,391.225 553.157,391.225 553.157,392.885 547.188,392.885 		"/>
		<path fill="#FFFFFF" d="M555.157,384.324c0.592-0.283,1.426-0.672,2.768-0.672c2.721,0,3.352,1.378,3.352,3.656v3.97
			c0,0.654,0.068,1.255,0.119,1.607h-1.9c-0.107-0.353-0.123-0.793-0.123-1.236h-0.037c-0.525,0.742-1.189,1.378-2.447,1.378
			c-1.357,0-2.619-0.97-2.619-2.665c0-2.474,1.941-3.092,4.607-3.092h0.426v-0.334c0-0.901-0.426-1.73-1.631-1.73
			c-1.055,0-1.99,0.53-2.4,0.884 M559.302,388.435h-0.186c-1.805,0-2.871,0.39-2.871,1.716c0,0.828,0.521,1.392,1.34,1.392
			c1.26,0,1.717-0.968,1.717-2.596V388.435z"/>
		<path fill="#FFFFFF" d="M563.7,381.922l2.109-0.672v2.543h1.75v1.605h-1.75v4.715c0,0.97,0.342,1.251,0.953,1.251
			c0.375,0,0.646-0.104,0.797-0.193v1.554c-0.322,0.159-0.779,0.3-1.408,0.3c-1.563,0-2.451-0.742-2.451-2.651v-4.977h-1.395v-1.605
			h1.395"/>
		<path fill="#FFFFFF" d="M569.013,379.929h2.176v2.152h-2.176 M569.28,383.793h2.109v9.092h-2.109V383.793z"/>
		<path fill="#FFFFFF" d="M576.866,383.652c1.785,0,3.844,0.971,3.844,4.679c0,3.812-2.059,4.695-3.844,4.695
			s-3.861-0.884-3.861-4.695C573.005,384.624,575.081,383.652,576.866,383.652 M576.866,391.473c1.359,0,1.67-1.624,1.67-3.141
			c0-1.519-0.311-3.125-1.67-3.125c-1.361,0-1.684,1.606-1.684,3.125C575.183,389.849,575.505,391.473,576.866,391.473"/>
		<path fill="#FFFFFF" d="M582.548,385.293c0-0.566-0.02-1.093-0.07-1.5h1.971c0.02,0.459,0.072,0.933,0.072,1.394h0.051h-0.018
			c0.309-0.547,0.902-1.535,2.332-1.535c1.986,0,2.582,1.535,2.582,3.371v5.862h-2.105v-5.457c0-1.394-0.344-1.977-1.213-1.977
			c-1.105,0-1.492,0.971-1.492,2.136v5.297h-2.109"/>
		<path fill="#FFFFFF" d="M336.272,363.555h3.525c2.545,0,3.867,1.512,3.867,4.006c0,2.496-1.322,4.027-3.867,4.027h-1.268v5.159
			h-2.258 M339.378,369.735c1.412,0,2.029-0.737,2.029-2.174c0-1.436-0.617-2.154-2.029-2.154h-0.848v4.329H339.378L339.378,369.735
			z"/>
		<path fill="#FFFFFF" d="M344.866,367.581c0.619-0.301,1.484-0.718,2.877-0.718c2.82,0,3.475,1.475,3.475,3.912v4.252
			c0,0.701,0.072,1.343,0.125,1.72h-1.979c-0.105-0.377-0.119-0.85-0.119-1.322h-0.039c-0.547,0.794-1.232,1.475-2.539,1.475
			c-1.41,0-2.719-1.04-2.719-2.853c0-2.646,2.014-3.308,4.781-3.308h0.443v-0.361c0-0.963-0.443-1.85-1.693-1.85
			c-1.096,0-2.066,0.567-2.49,0.945 M349.173,371.985h-0.193c-1.871,0-2.982,0.417-2.982,1.834c0,0.887,0.545,1.493,1.393,1.493
			c1.307,0,1.783-1.04,1.783-2.78V371.985z"/>
		<path fill="#FFFFFF" d="M353.425,368.621c0-0.604-0.018-1.172-0.072-1.606h2.051c0.018,0.492,0.07,1.002,0.07,1.493h0.053h-0.02
			c0.318-0.586,0.936-1.645,2.42-1.645c2.063,0,2.684,1.645,2.684,3.61v6.273h-2.191v-5.839c0-1.494-0.354-2.116-1.252-2.116
			c-1.146,0-1.555,1.04-1.555,2.286v5.669h-2.188"/>
		<path fill="#FFFFFF" d="M373.05,373.572h-4.234l-0.885,3.177h-2.258l4.131-13.193h2.469l3.971,13.193h-2.328 M372.573,371.721
			l-1.551-6.162h-0.037l-1.693,6.162H372.573z"/>
		<path fill="#FFFFFF" d="M377.462,368.602c0-0.699-0.035-1.229-0.07-1.587h2.188c0.02,0.51,0.07,1.021,0.07,1.531h0.035
			c0.336-0.756,1.041-1.683,2.293-1.683c1.533,0,2.029,1.021,2.295,1.551c0.441-0.682,1.096-1.551,2.438-1.551
			c1.977,0,2.611,1.512,2.611,3.875v6.011h-2.191v-6.143c0-1.209-0.348-1.815-1.16-1.815c-0.973,0-1.482,0.983-1.482,2.061v5.897
			H382.3v-6.143c0-1.209-0.357-1.815-1.166-1.815c-0.971,0-1.484,0.983-1.484,2.061v5.897h-2.188"/>
		<path fill="#FFFFFF" d="M398.093,376.275c-0.461,0.208-1.414,0.624-2.721,0.624c-2.926,0-4.201-2.249-4.201-4.876
			c0-2.913,1.43-5.16,3.746-5.16c1.957,0,3.633,1.227,3.633,5.198v0.453h-5.26c0,1.664,0.617,2.665,2.313,2.665
			c1.346,0,1.977-0.435,2.383-0.756 M396.433,371.04c0-1.722-0.527-2.589-1.516-2.589c-1.148,0-1.627,1.303-1.627,2.589H396.433z"/>
		<path fill="#FFFFFF" d="M400.491,368.621c0-0.604-0.018-1.172-0.074-1.606h1.979c0.021,0.586,0.07,1.19,0.07,1.777h0.039
			c0.264-0.756,0.951-1.928,2.309-1.928c0.141,0,0.248,0.037,0.369,0.057v2.193c-0.191-0.058-0.387-0.096-0.615-0.096
			c-0.898,0-1.891,0.587-1.891,2.4v5.329h-2.186"/>
		<path fill="#FFFFFF" d="M406.987,362.875h2.258v2.307h-2.258 M407.022,367.015h2.188v9.732h-2.188V367.015z"/>
		<path fill="#FFFFFF" d="M417.749,376.501c-0.514,0.208-1.271,0.396-2.156,0.396c-2.996,0-4.271-2.249-4.271-5.008
			c0-2.778,1.348-5.027,4.396-5.027c0.689,0,1.5,0.227,1.904,0.397l-0.117,1.852c-0.391-0.208-0.936-0.472-1.537-0.472
			c-1.66,0-2.385,1.189-2.385,3.269c0,1.816,0.811,3.214,2.49,3.214c0.529,0,1.254-0.266,1.549-0.473"/>
		<path fill="#FFFFFF" d="M419.712,367.581c0.611-0.301,1.479-0.718,2.871-0.718c2.826,0,3.48,1.475,3.48,3.912v4.252
			c0,0.701,0.066,1.343,0.117,1.72h-1.975c-0.105-0.377-0.119-0.85-0.119-1.322h-0.039c-0.547,0.794-1.236,1.475-2.539,1.475
			c-1.41,0-2.717-1.04-2.717-2.853c0-2.646,2.012-3.308,4.779-3.308h0.445v-0.361c0-0.963-0.445-1.85-1.695-1.85
			c-1.098,0-2.064,0.567-2.492,0.945 M424.017,371.985h-0.195c-1.871,0-2.984,0.417-2.984,1.834c0,0.887,0.551,1.493,1.398,1.493
			c1.303,0,1.781-1.04,1.781-2.78V371.985z"/>
		<path fill="#FFFFFF" d="M428.269,368.621c0-0.604-0.02-1.172-0.072-1.606h2.049c0.018,0.492,0.07,1.002,0.07,1.493h0.055h-0.018
			c0.316-0.586,0.934-1.645,2.414-1.645c2.063,0,2.688,1.645,2.688,3.61v6.273h-2.193v-5.839c0-1.494-0.354-2.116-1.25-2.116
			c-1.145,0-1.555,1.04-1.555,2.286v5.669h-2.188"/>
		<polyline fill="#FFFFFF" points="336.376,380.133 338.636,380.133 338.636,385.5 342.29,385.5 342.29,380.133 344.55,380.133 
			344.55,393.325 342.29,393.325 342.29,387.504 338.636,387.504 338.636,393.325 336.376,393.325 		"/>
		<path fill="#FFFFFF" d="M353.69,392.853c-0.461,0.207-1.414,0.623-2.721,0.623c-2.928,0-4.199-2.248-4.199-4.875
			c0-2.912,1.432-5.162,3.744-5.162c1.957,0,3.631,1.231,3.631,5.2v0.453h-5.258c0,1.665,0.617,2.665,2.311,2.665
			c1.346,0,1.979-0.433,2.387-0.756 M352.03,387.618c0-1.721-0.527-2.59-1.516-2.59c-1.148,0-1.627,1.304-1.627,2.59H352.03z"/>
		<path fill="#FFFFFF" d="M356.458,384.16c0.617-0.302,1.484-0.718,2.879-0.718c2.82,0,3.475,1.474,3.475,3.913v4.252
			c0,0.699,0.07,1.343,0.123,1.718h-1.979c-0.104-0.375-0.119-0.848-0.119-1.321h-0.039c-0.545,0.794-1.23,1.474-2.537,1.474
			c-1.41,0-2.719-1.037-2.719-2.854c0-2.646,2.012-3.308,4.779-3.308h0.443v-0.359c0-0.963-0.443-1.852-1.693-1.852
			c-1.096,0-2.063,0.567-2.488,0.945 M360.765,388.563h-0.193c-1.871,0-2.984,0.415-2.984,1.834c0,0.889,0.549,1.493,1.396,1.493
			c1.305,0,1.781-1.037,1.781-2.78V388.563L360.765,388.563z"/>
		<rect x="365.231" y="379.15" fill="#FFFFFF" width="2.186" height="14.175"/>
		<path fill="#FFFFFF" d="M370.593,381.588l2.188-0.719v2.722h1.818v1.721h-1.818v5.046c0,1.042,0.357,1.343,0.992,1.343
			c0.389,0,0.67-0.112,0.826-0.207v1.664c-0.334,0.167-0.809,0.32-1.461,0.32c-1.625,0-2.545-0.794-2.545-2.836v-5.33h-1.449v-1.721
			h1.449"/>
		<path fill="#FFFFFF" d="M376.173,379.151h2.188v5.689h0.053c0.391-0.604,0.9-1.398,2.258-1.398c2.066,0,2.686,1.646,2.686,3.609
			v6.273h-2.189v-5.837c0-1.493-0.354-2.118-1.254-2.118c-1.145,0-1.553,1.039-1.553,2.286v5.669h-2.188"/>
		<path fill="#FFFFFF" d="M340.79,396.524c2.555,0,4.902,2.04,4.902,6.787c0,4.743-2.348,6.781-4.902,6.781
			c-2.561,0-4.906-2.038-4.906-6.781C335.884,398.564,338.229,396.524,340.79,396.524 M340.79,408.244
			c1.426,0,2.574-1.304,2.574-4.933c0-3.63-1.148-4.933-2.574-4.933c-1.432,0-2.58,1.303-2.58,4.933
			C338.21,406.94,339.358,408.244,340.79,408.244"/>
		<path fill="#FFFFFF" d="M347.743,401.777c0-0.604-0.021-1.171-0.074-1.607h1.979c0.018,0.588,0.07,1.193,0.07,1.779h0.033
			c0.264-0.757,0.955-1.93,2.314-1.93c0.137,0,0.246,0.037,0.367,0.058v2.191c-0.191-0.054-0.385-0.094-0.615-0.094
			c-0.898,0-1.889,0.585-1.889,2.399v5.33h-2.186"/>
		<path fill="#FFFFFF" d="M354.169,411.417c0.51,0.3,1.535,0.832,2.684,0.832c2.064,0,2.398-1.529,2.398-3.063v-0.924h-0.037
			c-0.352,0.754-0.967,1.646-2.398,1.646c-1.268,0-3.18-0.91-3.18-4.839c0-2.685,0.902-5.048,3.285-5.048
			c1.326,0,1.941,0.815,2.4,1.665h0.072c0-0.512,0.051-1.002,0.07-1.512h1.979c-0.041,0.509-0.074,1.02-0.074,1.529v7.183
			c0,3.043-0.865,5.217-4.197,5.217c-1.451,0-2.598-0.396-3.125-0.604 M357.329,408.186c1.377,0,1.922-1.059,1.922-3.27
			c0-2.042-0.725-3.14-1.766-3.119c-1.148,0.018-1.588,1.153-1.588,3.137C355.897,407.221,356.587,408.186,357.329,408.186"/>
		<path fill="#FFFFFF" d="M363.981,400.74c0.617-0.302,1.484-0.72,2.877-0.72c2.822,0,3.479,1.474,3.479,3.914v4.252
			c0,0.698,0.066,1.343,0.119,1.721h-1.977c-0.104-0.378-0.121-0.853-0.121-1.326h-0.037c-0.547,0.794-1.234,1.476-2.539,1.476
			c-1.412,0-2.721-1.041-2.721-2.855c0-2.646,2.016-3.305,4.783-3.305h0.441v-0.363c0-0.962-0.441-1.85-1.691-1.85
			c-1.094,0-2.064,0.567-2.492,0.942 M368.286,405.142h-0.191c-1.871,0-2.986,0.415-2.986,1.834c0,0.884,0.547,1.493,1.396,1.493
			c1.307,0,1.781-1.042,1.781-2.781V405.142z"/>
		<path fill="#FFFFFF" d="M372.54,401.777c0-0.604-0.02-1.171-0.072-1.607h2.049c0.02,0.494,0.072,1.002,0.072,1.496h0.053h-0.02
			c0.318-0.588,0.936-1.646,2.418-1.646c2.064,0,2.684,1.646,2.684,3.611v6.273h-2.191v-5.838c0-1.494-0.352-2.116-1.25-2.116
			c-1.146,0-1.555,1.038-1.555,2.287v5.667h-2.188"/>
		<path fill="#FFFFFF" d="M382.052,396.029h2.26v2.31h-2.26 M382.087,400.172h2.189v9.735h-2.189V400.172z"/>
		<polyline fill="#FFFFFF" points="386.147,407.883 390.028,401.946 386.272,401.946 386.272,400.17 392.216,400.17 
			392.216,402.175 388.405,408.126 392.339,408.126 392.339,409.907 386.147,409.907 		"/>
		<path fill="#FFFFFF" d="M394.44,400.74c0.615-0.302,1.482-0.72,2.877-0.72c2.822,0,3.479,1.474,3.479,3.914v4.252
			c0,0.698,0.064,1.343,0.119,1.721h-1.979c-0.104-0.378-0.117-0.853-0.117-1.326h-0.037c-0.551,0.794-1.236,1.476-2.543,1.476
			c-1.41,0-2.717-1.041-2.717-2.855c0-2.646,2.014-3.305,4.783-3.305h0.443v-0.363c0-0.962-0.443-1.85-1.697-1.85
			c-1.096,0-2.063,0.567-2.49,0.942 M398.749,405.142h-0.195c-1.871,0-2.984,0.415-2.984,1.834c0,0.884,0.547,1.493,1.396,1.493
			c1.305,0,1.783-1.042,1.783-2.781V405.142L398.749,405.142z"/>
		<path fill="#FFFFFF" d="M403.81,398.167l2.188-0.717v2.719h1.82v1.722h-1.82v5.045c0,1.042,0.355,1.344,0.988,1.344
			c0.389,0,0.674-0.114,0.832-0.209v1.663c-0.336,0.172-0.811,0.322-1.465,0.322c-1.627,0-2.543-0.794-2.543-2.836v-5.329h-1.447
			v-1.722h1.447"/>
		<path fill="#FFFFFF" d="M409.563,396.029h2.258v2.31h-2.258 M409.601,400.172h2.188v9.735h-2.188V400.172z"/>
		<path fill="#FFFFFF" d="M417.909,400.02c1.852,0,3.986,1.041,3.986,5.009c0,4.08-2.135,5.028-3.986,5.028
			c-1.854,0-4.008-0.948-4.008-5.028C413.901,401.06,416.056,400.02,417.909,400.02 M417.909,408.394c1.41,0,1.729-1.74,1.729-3.365
			c0-1.624-0.318-3.345-1.729-3.345s-1.75,1.721-1.75,3.345C416.159,406.653,416.499,408.394,417.909,408.394"/>
		<path fill="#FFFFFF" d="M423.808,401.777c0-0.604-0.02-1.171-0.074-1.607h2.049c0.014,0.494,0.068,1.002,0.068,1.496h0.059h-0.021
			c0.316-0.588,0.936-1.646,2.416-1.646c2.066,0,2.684,1.646,2.684,3.611v6.273h-2.186v-5.838c0-1.494-0.357-2.116-1.256-2.116
			c-1.146,0-1.553,1.038-1.553,2.287v5.667h-2.186"/>
		<path fill="#FFFFFF" d="M305.06,413.521c-14.705,0-26.664-11.811-26.664-26.325c0-14.512,11.959-26.322,26.664-26.322
			c14.701,0,26.664,11.81,26.664,26.322C331.724,401.71,319.761,413.521,305.06,413.521 M305.06,362.082
			c-14.03,0-25.443,11.267-25.443,25.115c0,13.849,11.413,25.117,25.443,25.117c14.031,0,25.443-11.268,25.443-25.117
			C330.503,373.349,319.091,362.082,305.06,362.082"/>
		<path fill="#FFFFFF" d="M305.06,406.284c-10.946,0-19.853-8.563-19.853-19.087c0-10.525,8.907-19.087,19.853-19.087
			c10.947,0,19.85,8.562,19.85,19.087C324.909,397.721,316.007,406.284,305.06,406.284 M305.06,369.453
			c-10.197,0-18.49,7.959-18.49,17.743c0,9.782,8.293,17.74,18.49,17.74c10.197,0,18.49-7.958,18.49-17.74
			C323.55,377.413,315.257,369.453,305.06,369.453"/>
		<polyline fill="#FFFFFF" points="283.999,378.038 284.349,379.327 285.622,379.327 284.695,380.05 285.041,381.178 
			283.945,380.288 282.873,381.259 283.304,380.05 282.206,379.333 283.48,379.357 		"/>
		<path fill="#FFFFFF" d="M285.175,381.371l-1.228-0.993l-1.029,0.932l-0.109-0.072l0.414-1.159l-1.251-0.817l1.463,0.029
			l0.577-1.466l0.39,1.436h1.416l-1.044,0.815 M282.438,379.403l0.948,0.62l-0.358,1.004l0.912-0.83l0.972,0.787l-0.296-0.959
			l0.81-0.632h-1.13l-0.309-1.139l-0.461,1.172L282.438,379.403z"/>
		<polyline fill="#FFFFFF" points="324.669,396.299 325.017,397.586 326.288,397.586 325.364,398.309 325.712,399.443 
			324.61,398.548 323.54,399.522 323.976,398.309 322.872,397.592 324.149,397.617 		"/>
		<path fill="#FFFFFF" d="M325.843,399.634l-1.23-0.998l-1.029,0.935l-0.111-0.073l0.422-1.157l-1.252-0.817l1.459,0.03l0.578-1.468
			l0.391,1.438h1.414l-1.043,0.815 M323.106,397.666l0.951,0.621l-0.365,1.004l0.918-0.83l0.973,0.79l-0.297-0.96l0.809-0.635
			h-1.131l-0.307-1.139l-0.465,1.173L323.106,397.666z"/>
		<polyline fill="#FFFFFF" points="285.361,396.012 285.709,397.3 286.984,397.3 286.058,398.024 286.404,399.153 285.305,398.261 
			284.232,399.231 284.667,398.024 283.567,397.307 284.841,397.333 		"/>
		<path fill="#FFFFFF" d="M286.534,399.346l-1.227-0.996l-1.029,0.931l-0.11-0.071l0.417-1.159l-1.249-0.819l1.459,0.035
			l0.577-1.472l0.391,1.437h1.417l-1.043,0.816 M283.8,397.375l0.948,0.624l-0.359,1.001l0.913-0.829l0.972,0.789l-0.295-0.959
			l0.81-0.634h-1.131l-0.308-1.139l-0.459,1.172L283.8,397.375z"/>
		<polyline fill="#FFFFFF" points="326.247,377.111 326.712,378.402 327.87,378.402 326.942,379.124 327.29,380.253 
			326.247,379.299 325.122,380.334 325.554,379.124 324.452,378.406 325.726,378.434 		"/>
		<path fill="#FFFFFF" d="M327.431,380.471l-1.184-1.082l-1.082,0.994l-0.111-0.071l0.418-1.161l-1.25-0.816l1.463,0.03l0.563-1.446
			l0.512,1.416h1.309l-1.045,0.813 M324.688,378.479l0.949,0.618l-0.363,1.001l0.973-0.892l0.908,0.829l-0.289-0.937l0.807-0.629
			h-1.008l-0.418-1.166l-0.475,1.197L324.688,378.479z"/>
		<path fill="#FFFFFF" d="M306.628,387.189c0.107-0.004,0.215-0.006,0.316,0"/>
		<polyline fill="#FFFFFF" points="291.552,402.15 292.109,402.656 289.453,405.49 288.856,404.949 289.582,401.87 289.572,401.859 
			287.678,403.881 287.121,403.375 289.778,400.539 290.407,401.113 289.693,404.115 289.703,404.126 		"/>
		<path fill="#FFFFFF" d="M306.054,367.047l-0.867-0.084l1.793-3.667l0.943,0.092l1.002,3.938l-0.893-0.086l-0.17-0.809
			l-1.457-0.142 M306.69,365.653l1.008,0.097l-0.338-1.551h-0.008L306.69,365.653z"/>
		<polyline fill="#FFFFFF" points="311.37,367.229 313.239,367.815 313.011,368.466 310.358,367.634 311.614,364.037 
			312.396,364.284 		"/>
		<path fill="#FFFFFF" d="M317.386,369.568c-0.566,0.837-1.326,0.869-2.158,0.351c-0.297-0.19-0.701-0.544-0.777-1.043
			c-0.047-0.306,0.059-0.607,0.264-0.934l1.426-2.111l0.697,0.441l-1.395,2.065c-0.297,0.444-0.162,0.805,0.154,1.006
			c0.471,0.297,0.814,0.197,1.074-0.189l1.414-2.098l0.699,0.441"/>
		<polyline fill="#FFFFFF" points="319.173,372.594 318.536,372.088 320.624,369.685 319.702,368.956 320.153,368.436 
			322.628,370.404 322.179,370.922 321.261,370.19 		"/>
		<path fill="#FFFFFF" d="M301.683,366.156c0.039,0.211,0.217,0.598,0.93,0.494c0.383-0.055,0.797-0.208,0.73-0.609
			c-0.053-0.297-0.355-0.335-0.785-0.371l-0.436-0.033c-0.654-0.05-1.283-0.101-1.422-0.936c-0.072-0.423,0.035-1.202,1.299-1.387
			c1.195-0.173,1.643,0.542,1.725,1.006l-0.779,0.114c-0.051-0.166-0.186-0.558-0.895-0.455c-0.313,0.046-0.66,0.21-0.6,0.552
			c0.049,0.295,0.311,0.325,0.477,0.337l0.988,0.09c0.553,0.05,1.076,0.19,1.189,0.872c0.191,1.142-0.984,1.417-1.326,1.467
			c-1.42,0.207-1.799-0.557-1.879-1.028"/>
		<path fill="#FFFFFF" d="M292.759,366.26c0.462-0.233,1.781-0.656,2.636,0.938c0.854,1.591-0.258,2.399-0.718,2.633
			c-0.463,0.234-1.781,0.656-2.636-0.935C291.187,367.305,292.299,366.496,292.759,366.26 M294.355,369.231
			c0.394-0.199,0.82-0.715,0.312-1.664c-0.509-0.949-1.191-0.905-1.586-0.705c-0.393,0.199-0.818,0.716-0.309,1.665
			C293.279,369.477,293.963,369.433,294.355,369.231"/>
		<path fill="#FFFFFF" d="M287.078,370.877l1.371-1.402c0.723-0.736,1.406-0.363,1.648-0.136c0.308,0.286,0.42,0.685,0.249,1.045
			c0.322-0.133,0.53-0.177,1.055,0.307c0.409,0.379,0.509,0.474,0.68,0.394l0.073,0.067l-0.629,0.642
			c-0.171-0.084-0.337-0.195-0.625-0.459c-0.383-0.357-0.553-0.473-0.974-0.042l-0.586,0.598l1.097,1.017l-0.554,0.565
			 M289.532,370.771c0.296-0.299,0.334-0.546,0.057-0.801c-0.149-0.137-0.432-0.275-0.764,0.067l-0.709,0.719l0.75,0.696
			L289.532,370.771z"/>
		<polyline fill="#FFFFFF" points="315.761,404.403 316.431,404.042 318.339,407.346 317.62,407.737 314.86,406.137 
			314.853,406.142 316.214,408.498 315.544,408.859 313.638,405.557 314.39,405.147 317.083,406.711 317.091,406.706 		"/>
		<path fill="#FFFFFF" d="M317.188,403.344l1.369-1.025c1.047-0.789,1.959-0.086,2.416,0.484c0.52,0.645,1.002,1.771-0.023,2.541
			l-1.344,1.009 M319.825,405.356l0.629-0.469c0.531-0.398,0.295-1.048-0.109-1.543c-0.713-0.886-1.205-0.628-1.479-0.421
			l-0.623,0.468L319.825,405.356z"/>
		<polyline fill="#FFFFFF" points="323.757,402.792 323.216,403.39 320.263,400.884 320.802,400.282 		"/>
		<polyline fill="#FFFFFF" points="325.017,374.478 323.753,372.865 323.095,373.35 324.259,374.83 323.708,375.234 
			322.538,373.756 321.729,374.35 323.054,376.035 322.495,376.441 320.687,374.136 323.821,371.835 325.573,374.07 		"/>
		<path fill="#FFFFFF" d="M294.164,404.122c0.424,0.29,1.418,1.231,0.37,2.695c-1.049,1.466-2.301,0.886-2.728,0.596
			c-0.426-0.29-1.419-1.226-0.37-2.695C292.486,403.252,293.736,403.835,294.164,404.122 M292.202,406.861
			c0.363,0.246,1.031,0.375,1.659-0.499c0.626-0.875,0.271-1.444-0.095-1.688c-0.364-0.248-1.028-0.376-1.656,0.5
			C291.484,406.049,291.84,406.616,292.202,406.861"/>
		<polyline fill="#FFFFFF" points="298.333,406.189 299.122,406.484 296.454,409.589 295.731,409.318 295.935,405.295 
			296.75,405.597 296.448,408.59 296.457,408.594 		"/>
		<polyline fill="#FFFFFF" points="299.667,410.514 298.87,410.313 299.884,406.659 300.681,406.864 		"/>
		<polyline fill="#FFFFFF" points="308.985,410.808 308.218,410.859 307.993,407.683 307.983,407.683 307.476,410.909 
			306.665,410.959 305.726,407.831 305.714,407.831 305.937,411.012 305.171,411.06 304.903,407.258 306.103,407.179 
			307.026,410.13 307.04,410.13 307.53,407.082 308.722,407.003 		"/>
		<path fill="#FFFFFF" d="M313.548,408.442c0.258,0.979-0.238,1.548-1.197,1.782c-0.354,0.089-0.898,0.135-1.334-0.148
			c-0.27-0.174-0.43-0.458-0.537-0.828l-0.654-2.46l0.814-0.204l0.639,2.412c0.139,0.519,0.506,0.671,0.879,0.579
			c0.545-0.136,0.705-0.448,0.584-0.896l-0.648-2.452l0.816-0.198"/>
		<path fill="#FFFFFF" d="M287.478,376.446l-0.458,0.665l-3.252-2.152l1.007-1.457c0.43-0.616,1.091-0.721,1.727-0.3
			c0.296,0.194,0.928,0.849,0.334,1.704l-0.528,0.763 M286.173,374.681c0.342-0.497-0.018-0.735-0.164-0.833
			c-0.317-0.209-0.567-0.125-0.853,0.29l-0.367,0.526l0.954,0.635L286.173,374.681z"/>
		<path fill="#FFFFFF" d="M308.948,402.197c0.285,0.652-0.461,0.487-0.748,0.723h-0.24
			C308.007,402.547,308.419,401.939,308.948,402.197"/>
		<path fill="#FFFFFF" d="M304.714,390.57v0.256h-1.01C303.606,390.264,304.474,390.172,304.714,390.57"/>
		<polyline fill="#FFFFFF" points="306.47,383.911 306.956,383.323 308.255,383.216 308.849,383.107 308.579,383.644 
			307.874,383.911 307.983,383.644 307.175,383.591 306.741,383.911 		"/>
		<polyline fill="#FFFFFF" points="309.661,383.162 310.093,383.107 310.579,383.324 310.31,383.644 309.823,383.75 
			309.604,384.017 309.337,383.806 308.905,383.911 308.851,383.698 309.228,383.591 309.069,383.376 309.228,383.218 		"/>
		<polyline fill="#FFFFFF" points="310.999,383.668 311.269,383.453 311.755,383.505 311.646,383.775 310.942,383.933 		"/>
		<polyline fill="#FFFFFF" points="307.175,384.285 307.712,384.234 307.604,384.553 307.065,384.553 		"/>
		<polyline fill="#FFFFFF" points="310.851,384.205 311.171,383.961 311.349,384.134 311.136,384.312 		"/>
		<polyline fill="#FFFFFF" points="310.573,384.725 310.843,385.045 311.06,384.938 310.896,384.404 		"/>
		<polyline fill="#FFFFFF" points="311.562,384.927 311.722,384.714 311.237,384.446 		"/>
		<line fill="#FFFFFF" x1="311.562" y1="384.927" x2="311.722" y2="384.714"/>
		<polyline fill="#FFFFFF" points="312.104,384.688 312.296,384.763 312.22,385.548 311.958,384.837 		"/>
		<path fill="#FFFFFF" d="M303.462,372.675c0.195-0.211,0.049-1.119-0.262-1.212c-0.363,0.558,0.744,0.815,0,1.212 M305.196,375.586
			c-0.045-0.438-0.154-1.361,0.26-1.938l0.244-0.251c-0.096,0.072-0.178,0.156-0.244,0.251l-0.5-0.486l0.24-0.254
			c-0.361,0.116-0.482-0.302-0.746-0.466c-0.338,0.907,1.828,2.074-0.238,2.166c-0.148-0.138-0.338-0.256-0.268-0.491h-0.24v0.258
			h0.24c-0.143,0.117-0.264,0.302-0.482,0.232c-0.02,0.28,0.049,0.583-0.262,0.723h0.504c0.143,0.139,0.336,0.254,0.24,0.488
			c0.336,0.095,0.84-0.209,1.012,0.234C304.882,375.843,305.075,375.728,305.196,375.586 M307.849,387.189
			c0.533-0.329,0.836-0.548,1.605-0.721c-0.076,0.233,0.117,0.351,0.236,0.489c0.551-0.622,0.891-0.112,1.305,0.232
			c0.201,0.173,0.422,0.302,0.695,0.233c0.016-0.077,0.051-0.152,0.096-0.233h0.266c0.371,0.897,1.777,1.426,1.896,2.427
			c0.867,0.418,2.072,0.067,2.74,0.953c1.758,1.932-2.113,2.633-1.488,4.615c-0.314,1.278-1.301,1.492-2.502,1.678
			c-0.387,0.977-1.154,1.374-1.992,1.933c-1.252-0.046-1.42,0.863-2.504,1.214c-0.385,1.259-1.445,1.606-1.754,2.909
			c0.191,0.397,0.863,0.165,0.74,0.721c-0.861,0.023-1.971-0.489-1.992-1.443c0.334-2.702,2.334-4.754,2.502-7.504
			c-1.35-0.977-1.566-2.842-1.492-4.587c0.865-0.443,0.676-1.307,0.982-1.936l-0.479-0.489c-0.504,0.723-0.842-0.373-1.514,0
			c-0.045-0.18-0.137-0.341-0.252-0.492c-0.275-0.349-0.695-0.633-1-0.977c-0.986-0.303-2.09-0.373-2.98-0.956
			c-1.133-0.093-0.484-1.35-1.492-1.698c-0.145,0.139-0.338,0.256-0.266,0.488c-1.61-0.421-0.961-2.167-1.731-3.147
			c0.171-0.687,0.198-1.328,0.055-1.936c-0.103-0.417-0.287-0.819-0.562-1.21c-1.586-1.724-3.343,1.259-5.242,0.235
			c0.699-0.046,1.275-0.375,1.733-0.956c-0.145-0.235-0.577-0.375-0.484-0.724l0.242-0.256l-0.242-0.234l0.242-0.233
			c-0.144-0.139-0.335-0.254-0.242-0.49c0.939-0.744,2.217-1.771,3.729-1.699c1.157-0.422,2.721,0.931,3.756-0.489
			c-0.529-0.025-1.084-0.795-0.508-1.19c0.361,0.048,0.746-0.581,1.012,0c0.313-0.163,0.238-0.465,0.238-0.747
			c0.822-0.442,1.709,0.934,1.998-0.232h0.504c-0.072,0.232,0.123,0.35,0.24,0.49l0.268-0.258l0.238,0.258
			c0.674-0.652,1.105,0.676,1.998,0.233c0.672,0.42,1.082,1.351,1.25,2.188c-0.266,0-0.578-0.069-0.748,0.232l1.012,0.98
			c0.311-0.164,0.24-0.467,0.24-0.747c1.203,0.608,1.922,1.842,2.504,2.916c-1.301,0.209-2.482,0.769-3.25,1.931
			c0.795,1.96-2.547,1.913-1.008,3.871l-0.496,0.493c-0.055-0.453-0.205-0.858-0.492-1.216c-1.301,0.816-3.559-0.815-3.246,1.703
			c0.336,0.279,0.313,0.698,0.744,0.955c0.625,0.279,0.844-0.489,1.254-0.722v-0.232h0.984c0.529,0.885-1.105,1.933,0.504,2.164
			c0,0.28,0.072,0.585-0.24,0.724c0.123,0.336,0.34,0.456,0.59,0.487c0.182,0.03,0.381,0.012,0.576,0h0.32
			c0.193,0.018,0.377,0.073,0.51,0.233C307.603,387.34,307.731,387.262,307.849,387.189"/>
		<path fill="#FFFFFF" d="M326.29,382.403c0.188-0.03,0.459-0.052,0.857-0.052c0.367,0,0.631,0.063,0.811,0.199
			c0.178,0.129,0.297,0.358,0.297,0.618c0,0.257-0.09,0.484-0.25,0.629c-0.211,0.184-0.512,0.263-0.857,0.263
			c-0.07,0-0.131-0.004-0.172-0.006v0.867h-0.686 M326.974,383.531c0.037,0.003,0.086,0.008,0.158,0.008
			c0.271,0,0.439-0.138,0.439-0.357c0-0.188-0.133-0.315-0.391-0.315c-0.104,0-0.172,0.006-0.207,0.011V383.531z"/>
		<path fill="#FFFFFF" d="M327.405,387.871l-0.143,0.588h-0.715l0.75-2.549h0.922l0.768,2.549h-0.746l-0.166-0.588 M327.979,387.363
			l-0.119-0.459c-0.037-0.143-0.088-0.35-0.125-0.501h-0.004c-0.043,0.151-0.08,0.361-0.117,0.507l-0.111,0.453H327.979z"/>
		<polyline fill="#FFFFFF" points="326.854,389.549 326.854,390.493 327.692,390.493 327.692,389.549 328.38,389.549 
			328.38,392.101 327.692,392.101 327.692,391.091 326.854,391.091 326.854,392.101 326.163,392.101 326.163,389.549 		"/>
		<path fill="#FFFFFF" d="M327.769,394.412c0,0.818-0.496,1.343-1.293,1.343c-0.801,0-1.246-0.592-1.246-1.304
			c0-0.742,0.496-1.331,1.287-1.331C327.349,393.121,327.769,393.728,327.769,394.412 M325.966,394.443
			c0,0.477,0.209,0.769,0.545,0.769c0.328,0,0.527-0.32,0.527-0.779c0-0.439-0.199-0.772-0.533-0.772
			C326.175,393.661,325.966,393.972,325.966,394.443"/>
		<path fill="#FFFFFF" d="M284.188,384.976c0,0.822-0.498,1.343-1.293,1.343c-0.8,0-1.24-0.593-1.24-1.302
			c0-0.741,0.493-1.329,1.281-1.329C283.769,383.689,284.188,384.295,284.188,384.976 M282.382,385.007
			c0,0.476,0.215,0.771,0.546,0.771c0.333,0,0.53-0.32,0.53-0.777c0-0.441-0.201-0.773-0.536-0.773
			C282.597,384.227,282.382,384.538,282.382,385.007"/>
		<path fill="#FFFFFF" d="M281.657,387.832c0.184-0.031,0.458-0.054,0.85-0.054c0.373,0,0.636,0.065,0.815,0.201
			c0.177,0.129,0.296,0.357,0.296,0.617c0,0.256-0.089,0.482-0.25,0.627c-0.21,0.186-0.512,0.265-0.862,0.265
			c-0.065,0-0.126-0.003-0.166-0.006v0.868h-0.684 M282.341,388.959c0.038,0.003,0.081,0.01,0.157,0.01
			c0.269,0,0.439-0.14,0.439-0.359c0-0.189-0.13-0.317-0.39-0.317c-0.105,0-0.174,0.009-0.206,0.016V388.959L282.341,388.959z"/>
		<path fill="#FFFFFF" d="M282.766,393.246c0.156,0.079,0.414,0.158,0.67,0.158c0.237,0,0.353-0.079,0.353-0.211
			c0-0.122-0.116-0.194-0.404-0.292c-0.439-0.15-0.726-0.39-0.726-0.77c0-0.447,0.383-0.796,1.034-0.796
			c0.31,0,0.529,0.056,0.702,0.131l-0.144,0.547c-0.113-0.048-0.303-0.123-0.565-0.123c-0.21,0-0.326,0.077-0.326,0.189
			c0,0.128,0.14,0.18,0.464,0.302c0.463,0.168,0.673,0.412,0.673,0.769c0,0.438-0.347,0.818-1.101,0.818
			c-0.31,0-0.613-0.084-0.758-0.158"/>
		<path fill="#FFFFFF" d="M5.416,361.902h38.863c9.187,0,21.581,3.913,21.581,18.065c0,13.699-9.863,19.347-21.667,19.347H28.008
			v15.132H5.416V361.902z M27.418,387.119h4.973c5.395,0,10.875-0.903,10.875-6.774c0-5.57-5.479-6.248-10.958-6.248h-4.89V387.119z
			"/>
		<path fill="#FFFFFF" d="M81.465,361.903h31.105l20.99,52.544h-23.688l-3.877-11.369H86.943l-3.625,11.369H60.811L81.465,361.903z
			 M90.063,390.431h13.067l-6.407-17.237h-0.169L90.063,390.431z"/>
		<polygon fill="#FFFFFF" points="174.203,361.903 196.794,361.903 196.794,414.447 174.203,414.447 174.203,395.55 159.114,395.55 
			159.114,414.447 136.522,414.447 136.522,361.903 159.114,361.903 159.114,380.044 174.203,380.044 		"/>
		<path fill="#FFFFFF" d="M235.245,415.349c-20.569,0-32.625-9.257-32.625-27.173c0-17.616,12.056-27.178,32.625-27.178
			c20.567,0,32.876,9.562,32.876,27.178C268.121,406.092,255.812,415.349,235.245,415.349 M235.245,402.704
			c8.935,0,9.188-8.884,9.273-14.528c-0.084-4.894-0.675-14.529-9.273-14.529c-8.346,0-9.021,9.635-9.021,14.529
			C226.224,393.82,227.152,402.704,235.245,402.704"/>
	</g>
</g>
</svg>
