<?xml version="1.0" encoding="utf-8"?>
<!-- Generator: Adobe Illustrator 14.0.0, SVG Export Plug-In . SVG Version: 6.00 Build 43363)  -->
<!DOCTYPE svg PUBLIC "-//W3C//DTD SVG 1.1//EN" "http://www.w3.org/Graphics/SVG/1.1/DTD/svg11.dtd">
<svg version="1.1" id="Layer_1" xmlns="http://www.w3.org/2000/svg" xmlns:xlink="http://www.w3.org/1999/xlink" x="0px" y="0px"
	 width="500px" height="200px" viewBox="0 0 500 200" enable-background="new 0 0 500 200" xml:space="preserve">
<path fill="#009EE0" d="M42.778,111.142l-6.144-6.144c-0.277-0.277-0.651-0.434-1.048-0.434h-1.006
	c1.698-2.176,2.71-4.915,2.71-7.891c0-7.083-5.74-12.823-12.823-12.823c-7.083,0-12.818,5.74-12.818,12.823
	c0,7.083,5.74,12.823,12.824,12.823c2.976,0,5.716-1.012,7.89-2.71v1.005c0,0.392,0.157,0.771,0.434,1.049l6.144,6.144
	c0.578,0.578,1.518,0.578,2.09,0l1.747-1.747C43.351,112.66,43.351,111.721,42.778,111.142z M24.474,104.564
	c-4.361,0-7.89-3.523-7.89-7.891c0-4.36,3.523-7.89,7.89-7.89c4.361,0,7.89,3.523,7.89,7.89
	C32.364,101.029,28.835,104.564,24.474,104.564z"/>
</svg>
